<?xml version="1.0" encoding="UTF-8"?><svg id="b" xmlns="http://www.w3.org/2000/svg" viewBox="0 0 292.04 149.99"><defs><style>.e{fill:#ffbf8f;}</style></defs><g id="c"><g id="d"><path class="e" d="M51.18,149.98h3.01c-.61-.39-1.21-.61-1.88-.54-.52.06-.8.32-1.13.54Z"/><path class="e" d="M266.12,144.89c3.55,0,8.16-4.5,14.49-14.05l4.27-6.55,1.89,1.05,1.83,1.11,1.72-1.78c.94-1,1.72-1.94,1.72-2.11s-1-.89-2.28-1.5l-2.28-1.22-1.11,1.44c-.61.78-1.39,1.39-1.72,1.39-.39,0-3.55-2.16-7.05-4.72-3.5-2.61-7.66-5.39-9.27-6.16-3.05-1.5-7.61-2-10.11-1.11-1.28.44-1.22.28.61-2.22,4.72-6.44,8.94-17.05,11.77-29.81.39-1.61,1-1.72,3.83-.61.61.22,1.66-.72,3.39-3.11,1.39-1.89,2.39-3.66,2.22-3.94-.33-.56-5.39-.56-7.38,0-1,.28-1.55.94-1.89,2.28-.28,1.06-.55,2-.67,2.11-.06.06-2.72-.61-5.88-1.5-9.44-2.72-15.1-3.61-22.88-3.61h-7.05l1.05-1.11c3.78-4.22,4.11-8.66,1.94-26.26l-.28-2.39,2.22-.33,2.28-.39v-2.72c0-2.33-.17-2.72-1-2.44-.5.11-1.72.39-2.66.61-1.44.28-1.67.56-1.72,2.28-.05,1.05-.17,2.05-.28,2.16-.11.17-4.11.5-8.83.83-4.72.28-9.55.83-10.77,1.17-3.05.83-6.61,3-7.94,4.72l-1.05,1.5-.67-5.22c-.83-6.38-3.5-14.55-7.55-23.04l-3-6.38,1.89-.83c1.94-.78,1.94-.83,1.94-4.33,0-3.83-.33-5.33-1.22-5.33-.67,0-4.77,3.83-5.5,5.11-.33.67-.28,1.61.28,2.94l.83,1.94-4,1.78c-10.72,4.72-18.04,9.27-23.65,14.71-1.67,1.61-3.05,2.94-3.05,2.94-.06,0-.06-1.33-.11-2.94-.06-4.39-1.78-7.11-9.44-14.82-3.78-3.83-6.88-7.22-6.88-7.49s.5-1.06,1.17-1.72l1.17-1.22-1.55-2c-.89-1.11-1.72-2-1.89-2s-1,.89-1.89,2l-1.55,2,1.16,1.22c.67.67,1.17,1.44,1.17,1.72s-3.11,3.66-6.88,7.49c-7.66,7.72-9.38,10.44-9.44,14.82-.06,1.61-.06,2.94-.11,2.94,0,0-1.39-1.33-3.05-2.94-5.61-5.44-12.94-9.99-23.65-14.71l-4-1.78.83-1.94c.56-1.33.61-2.28.28-2.94-.72-1.28-4.83-5.11-5.5-5.11-.89,0-1.22,1.5-1.22,5.33,0,3.5,0,3.55,1.94,4.33l1.89.83-3,6.38c-4.05,8.49-6.72,16.66-7.55,23.04l-.67,5.22-1.05-1.5c-1.33-1.72-4.89-3.89-7.94-4.72-1.22-.33-6.05-.89-10.77-1.17-4.72-.33-8.72-.67-8.83-.83-.11-.11-.22-1.11-.28-2.16-.06-1.72-.28-2-1.72-2.28-.94-.22-2.16-.5-2.72-.61-.78-.28-.94.11-.94,2.44v2.72l2.28.39,2.22.33-.28,2.39c-2.16,17.6-1.83,22.04,1.94,26.26l1.05,1.11h-7.05c-7.77,0-13.44.89-22.87,3.61-3.16.89-5.83,1.55-5.89,1.5-.11-.11-.39-1.05-.67-2.11-.33-1.33-.89-2-1.89-2.28-2-.56-7.05-.56-7.38,0-.17.28.83,2.05,2.22,3.94,1.72,2.39,2.78,3.33,3.39,3.11,2.83-1.11,3.44-1,3.83.61,2.83,12.77,7.05,23.37,11.77,29.81,1.83,2.5,1.89,2.67.61,2.22-2.5-.89-7.05-.39-10.1,1.11-1.61.78-5.77,3.55-9.27,6.16-3.5,2.55-6.66,4.72-7.05,4.72-.33,0-1.11-.61-1.72-1.39l-1.11-1.44-2.28,1.22c-1.28.61-2.28,1.33-2.28,1.5s.78,1.11,1.72,2.11l1.72,1.78,1.83-1.11,1.89-1.05,4.27,6.55c6.33,9.55,10.94,14.05,14.49,14.05,2.44.06,2.39.94-.22,2.61-.75.5-1.84,1.4-3.06,2.48h2.55c5.17-3.99,10.8-7.1,17-9.09,3.5-1.05,5.33-1.28,11.66-1.28,9.44,0,11.99.78,14.1,4.44.78,1.33,1.44,2.55,1.44,2.67,0,.17-1.55-.39-3.5-1.22-3.17-1.33-4.05-1.44-11.22-1.44-7.16.06-8.11.17-11.6,1.55-2.59,1.02-5.1,2.59-7.52,4.37h2.18c.23-.13.42-.25.68-.37l1.83-.89-1.39,1.11c-.09.08-.14.08-.23.15h1.98c.06-.41.29-.83.8-1.04.44-.17,1.11-.06,1.44.28.22.22.28.49.25.76h5.96c.67-1.03,1.7-1.76,3.4-1.76,1.6,0,2.9.53,4.17,1.76h1.89c-2.2-2.42-2.44-2.98-.45-1.15.35.33.72.74,1.06,1.15h11.01c-.2-.14-.37-.23-.58-.43-.78-.72-1.72-1.33-2-1.33-.33,0-.44-.17-.22-.33.17-.22,1.22.22,2.33.89.69.44,1.14.86,1.41,1.2h1.64c-.02-.23-.03-.45-.27-.65-1.39-1.11-6.94-12.88-6.94-14.66,0-1.11.56-2.28,1.78-3.5.94-1,1.55-2,1.33-2.22-.39-.39-1.61.78-3.39,3.33-.67.94-1.28.72-9.22-3.44-10.05-5.22-13.6-6.33-19.65-6.39-8.77,0-12.38,4.72-7.33,9.61,4.33,4.27,14.16,5.5,27.54,3.44,4.05-.67,7.61-1,7.88-.83.28.17.5.78.5,1.39s.39,1.89.89,2.83c.83,1.61.83,1.72-.11,1.28-3.55-1.55-9.05-2.55-12.16-2.22-1.83.17-4.5.44-5.94.56-1.39.17-4.94,1-7.88,1.94l-5.27,1.72-3.11-1.11c-4.22-1.5-9.83-5.61-12.38-9.11-4.55-6.16-4.61-6.94-.94-9.83,4.77-3.83,11.22-6.16,17.1-6.27l4-.11,4.44,3.44c7.66,5.83,15.1,8.88,22.15,9.11,3.78.11,3.83.11,6.66-2.39,1.55-1.33,3.55-2.94,4.39-3.5,1.06-.67,1.44-1.28,1.17-1.89-.39-1-2.11-8.16-2.61-10.99-.39-2.11.5-2.94,4.5-4.11l2.39-.67-1.5-1.22c-1.28-1.05-1.39-1.33-.83-2.44.72-1.28,2.28-1.39,2.72-.17.11.44-.11.67-.5.56-.44-.06-.83,0-.94.28-.33,1,0,1.5,1,1.5,1.33,0,2.11-2.44,1.11-3.61-.89-1.05-2.39-1.05-4.44,0-1.5.78-2.05,1.72-2.44,4.33-.22,1.67-.89,1.72-.89.06,0-4.66,5.5-8.05,8.33-5.22,1.5,1.5,1.39,3.61-.17,4.77l-1.22.89,1.39-.33c.78-.22,2.16-.5,3.11-.72,1.61-.28,1.78-.5,2.11-3,.67-4.94,3.11-13.49,4.11-14.55,1.33-1.33,7.33-2.22,13.49-1.94,4.5.17,4.94.06,5.16-.94.61-2.22,5.44-10.88,6.27-11.22.78-.28,2.39.17,6.44,1.78.94.39,1,.33.33-.78-.89-1.39-.17-3,1.44-3.28,1.39-.28,2.33.83,1.5,1.67-.5.5-.67.5-.67,0,0-.39-.39-.67-.83-.67-1.17,0-1.06,2,.11,2.5.67.22,1.33-.06,1.94-.83,1.33-1.61,1.28-1.94-.44-3.28-2-1.61-4.22-1.44-6.38.33-1,.83-1.67,1.17-1.5.72.39-1.28,3.78-3.33,5.44-3.33,1.78,0,4.22,1.78,4.72,3.39.56,1.67-1.11,3.83-2.94,3.89-1.33,0-1.17.17,1.28,1.39l2.78,1.44,2.5-2.33c3.89-3.61,10.44-7.77,12.21-7.77s8.33,4.16,12.21,7.77l2.5,2.33,2.78-1.44c2.44-1.22,2.61-1.39,1.28-1.39-1.83-.06-3.5-2.22-2.94-3.89.5-1.61,2.94-3.39,4.72-3.39,1.66,0,5.05,2.05,5.44,3.33.17.44-.5.11-1.5-.72-2.16-1.78-4.38-1.94-6.38-.33-1.72,1.33-1.78,1.67-.44,3.28.61.78,1.28,1.06,1.94.83,1.17-.5,1.28-2.5.11-2.5-.44,0-.83.28-.83.67,0,.5-.17.5-.67,0-.83-.83.11-1.94,1.5-1.67,1.61.28,2.33,1.89,1.44,3.28-.67,1.11-.61,1.17.33.78,4.05-1.61,5.66-2.05,6.44-1.78.83.33,5.66,8.99,6.27,11.22.22,1,.67,1.11,5.16.94,6.16-.28,12.16.61,13.49,1.94,1,1.05,3.44,9.6,4.11,14.55.33,2.5.5,2.72,2.11,3,.94.22,2.33.5,3.11.72l1.39.33-1.28-.89c-1.5-1.17-1.61-3.28-.11-4.77,2.83-2.83,8.33.56,8.33,5.22,0,1.67-.67,1.61-.89-.06-.39-2.61-.94-3.55-2.44-4.33-2.05-1.05-3.55-1.05-4.44,0-1,1.17-.22,3.61,1.11,3.61,1,0,1.33-.5.94-1.5-.06-.28-.44-.33-.89-.28-.39.11-.61-.11-.5-.56.44-1.22,2-1.11,2.72.17.56,1.11.44,1.39-.83,2.44l-1.5,1.22,2.39.67c4,1.17,4.88,2,4.5,4.11-.5,2.83-2.22,9.99-2.61,10.99-.28.61.11,1.22,1.17,1.89.83.56,2.83,2.16,4.39,3.5,2.83,2.5,2.89,2.5,6.66,2.39,7.05-.22,14.49-3.28,22.15-9.11l4.44-3.44,4,.11c5.88.11,12.33,2.44,17.1,6.27,2.89,2.28,3.22,3.61,1.5,6.39-3.66,5.94-9.05,10.49-14.82,12.55l-3.11,1.11-5.28-1.72c-2.94-.94-6.5-1.78-7.88-1.94-1.44-.11-4.11-.39-5.94-.56-3.11-.33-8.61.67-12.16,2.22-.94.44-.94.33-.11-1.28.5-.94.89-2.22.89-2.83s.22-1.22.5-1.39,3.83.17,7.88.83c13.38,2.05,23.21.83,27.54-3.44,5.05-4.89,1.44-9.61-7.33-9.61-6.05.06-9.61,1.17-19.65,6.39-7.94,4.16-8.55,4.39-9.22,3.44-1.78-2.55-3-3.72-3.39-3.33-.22.22.39,1.22,1.33,2.22,1.22,1.22,1.78,2.39,1.78,3.5,0,1.78-5.55,13.55-6.94,14.66-.24.2-.25.42-.27.65h1.34c.23-.24.71-.57,1.65-1.15,1-.67,2.05-1.17,2.33-1.17s-.33.56-1.33,1.17c-.58.41-1.03.8-1.36,1.15h11c.37-.42.78-.85,1.19-1.2l1.55-1.39-1.66,1.94c-.24.28-.36.42-.56.65h1.92s.02-.03.03-.04c2.55-2.55,6.26-2.19,7.66.04h5.97c0-.12-.19-.19-.14-.32.11-.33.61-.67,1.11-.78.75-.14,1.26.47,1.33,1.09h1.89c-.62-.39-1.17-.79-1.17-.98,0-.17.78.17,1.72.61.24.13.38.25.58.37h2.1c-2.41-1.79-4.9-3.34-7.5-4.37-3.5-1.39-4.44-1.5-11.6-1.55-7.16,0-8.05.11-11.27,1.44-1.89.83-3.44,1.39-3.44,1.22,0-.11.67-1.33,1.44-2.67,2.11-3.66,4.66-4.44,14.1-4.44,6.33,0,8.16.22,11.66,1.28,6.14,1.93,11.94,5.05,17.13,9.09h2.42c-1.22-1.08-2.31-1.99-3.06-2.48-2.61-1.67-2.67-2.55-.22-2.61h-.02ZM237.19,37.85c.11-1.17.5-1.55,1.67-1.67,1.33-.17,1.55,0,1.55,1.17,0,1.33-.89,2.05-2.55,2.05-.61,0-.78-.44-.67-1.55ZM193.78,9.03c0-.11.89-1.17,2-2.39s2.22-2.22,2.5-2.22.5,1.44.5,3.22c0,2.94-.11,3.33-1.39,3.89-.78.39-1.55.67-1.67.67-.22,0-1.83-2.72-1.94-3.16h0ZM145.2,5.31c-1-1.33-1-1.44,0-2.78.55-.74,1.11-.74,1.67,0,1,1.33,1,1.44,0,2.78-.55.71-1.11.71-1.67,0ZM94.67,11.53c-1.28-.56-1.39-.94-1.39-3.89,0-1.78.22-3.22.5-3.22s1.39,1,2.5,2.22c1.94,2.17,2,2.28,1.17,3.89-1,1.89-.89,1.89-2.78,1ZM51.64,37.35c0-1.17.22-1.33,1.5-1.17,1.22.11,1.61.5,1.72,1.67.11,1.11-.06,1.55-.67,1.55-1.67,0-2.55-.72-2.55-2.05ZM54.98,146c0,1.06-1.05,1.5-1.83.78-.5-.56.22-1.89,1.05-1.89.44,0,.78.5.78,1.11ZM49.81,145.61c.39-.11,1.17-.17,1.67-.06.83.17.83.33-.33.94-.78.44-1.17.5-.94.11.22-.33.06-.61-.33-.67-.56,0-.56-.11-.06-.33h0ZM43.32,147.11c.44-.28,1.22-.56,1.67-.56.72,0,.72.06,0,.56-.44.28-1.22.56-1.67.56-.72,0-.72-.06,0-.56ZM47.76,148.22c-.83,0-1.11-.28-1-1,.11-.5.56-.94,1-.94s.89.44,1,.94c.11.72-.17,1-1,1ZM65.64,147.55c.33.33.5.83.28,1-.17.22-.78.22-1.28,0-.72-.28-.83-.5-.33-1s.83-.5,1.33,0ZM59.25,147.33c-.5-.56.11-1.33,1.05-1.33.44,0,.78.39.78.83,0,.83-1.17,1.17-1.83.5ZM46.87,135.28c-5.33.22-7.33.11-9.99-.67-6.05-1.72-9.27-4.33-8.94-7.22.06-.56.94-1.67,2-2.33,1.55-1.06,2.61-1.28,6.44-1.28,2.5,0,5.89.39,7.55.83,2.94.83,18.21,8.05,18.27,8.61,0,.61-8.77,1.78-15.32,2.05h-.01ZM86.57,97.97c.78.89,1.22,3.5.67,3.89-.28.17-.67-.5-.78-1.5s-.28-2.05-.28-2.39c-.06-.33.06-.33.39,0ZM205.77,98.42c-.17.56-.33,1.67-.33,2.39,0,.78-.22,1.22-.55,1.05-.61-.39-.17-3.05.72-3.89.39-.39.44-.22.17.44h0ZM237.53,129.23c9.16-4.5,12.27-5.44,18.1-5.44,4.66,0,7.72,1.11,8.44,3.05.61,1.55-1,4.16-3.33,5.55-4.33,2.5-8.22,3.22-15.55,2.89-6.55-.28-15.32-1.44-15.32-2.05.06-.17,3.44-1.94,7.66-4h0ZM226.76,148.66c-.56.17-.83-.06-.67-.56.17-.39.55-.72.89-.72,1,0,.83,1.11-.22,1.28ZM248.19,146.83c.67.22,1.05.5.94.67-.17.17-.83.11-1.5-.11-.67-.22-1.05-.5-.94-.67.17-.17.83-.11,1.5.11ZM245.3,147.22c.11.72-.17,1-1,1s-1.11-.28-1-1c.11-.5.56-.94,1-.94s.89.44,1,.94ZM242.19,145.83c-.33.11-.5.5-.33.83.22.33-.11.28-.83-.06-1.55-.89-1.44-1.17.33-1.11.89,0,1.22.17.83.33h0ZM237.86,144.89c.83,0,1.55,1.33,1.05,1.89-.78.72-1.83.28-1.83-.78,0-.61.33-1.11.78-1.11ZM231.92,146.11c1.22.22,1.11,1.22-.06,1.44-.55.11-.89-.17-.89-.72s.39-.83.94-.72h0ZM287.88,121.57c.33,0,1.06.33,1.61.72.89.67.89.78-.17,1.72-.83.78-1.28.83-2.22.33-1-.5-1.05-.72-.44-1.67.33-.61.94-1.11,1.22-1.11h0ZM266.34,88.15c-.67.56-8.77-.06-9.94-.78-1.33-.83.11-1.17,5.11-1.11,5.5.06,6.55.5,4.83,1.89h0ZM250.02,88.48c-.39-.56-.72-1.17-.72-1.33s.33-.78.72-1.33c1.5-2.11,5.27.11,3.94,2.28-.89,1.39-3.05,1.61-3.94.39h0ZM232.92,89.53c-2.39,1.17-2.61.72-.22-.44.94-.5,1.83-.83,1.94-.72.11.17-.67.67-1.72,1.17h0ZM236.25,87.7c.61-.28,2.11-.5,3.27-.5,3.05-.06,2.33.28-1.33.67-1.89.17-2.61.11-1.94-.17ZM240.64,83.48c-1.78.67-2.61-1.17-1.05-2.44.44-.33,1.05-.5,1.39-.28.89.56.67,2.33-.33,2.72h0ZM246.52,82.43c1,0,1.44.33,1.55,1.28.11.72-.17,1.39-.67,1.55-1.44.56-2.67-.22-2.44-1.55.11-.94.55-1.28,1.55-1.28h0ZM234.42,82.82c-.83.83-2.44.06-2.22-1.05.11-.56.61-1.06,1.17-1.17,1.11-.22,1.89,1.39,1.06,2.22h0ZM224.31,81.6c-.44.28-1.11.56-1.39.56-.33,0-.17-.28.28-.56.44-.28,1.05-.56,1.39-.56.28,0,.17.28-.28.56ZM227.09,81.6c.72,0,1.11.39,1.11,1.11s-.39,1.11-1.11,1.11-1.11-.39-1.11-1.11.39-1.11,1.11-1.11ZM221.59,84.87c-.56.83-2.28.44-2.28-.5,0-.33.39-.72.89-.94,1.11-.44,2,.44,1.39,1.44ZM218.37,84.48c-.39.44-.56,1-.33,1.17.17.22-.22.39-.89.39-1.39,0-1.11-.83.67-1.78,1.06-.56,1.11-.5.56.22h0ZM271.56,74.21c.28-.89.56-1.72.67-1.83.11-.11,1.61-.33,3.44-.56l3.28-.39-1.33,1.89c-2.5,3.66-2.66,3.78-4.66,3.16-1.78-.56-1.83-.72-1.39-2.28h-.01ZM266.51,75.88c2.55.67,3.28,1.11,3.11,1.78-.17.5-.67,2.28-1.17,4-.67,2.39-1.17,3.22-2.11,3.5-1.94.5-7.38.39-8.94-.22l-1.44-.5,1.17-2.94c.61-1.61,1.78-3.78,2.5-4.77,1.61-2.05,2.28-2.11,6.88-.83v-.02ZM259.62,74.04c.67.28.61.56-.56,1.83-.78.83-1.94,2.89-2.61,4.61-.67,1.67-1.33,3.17-1.39,3.28-.33.44-1.39-.67-1.16-1.28.17-.33,1-2.33,1.83-4.44,1.61-3.83,2.33-4.61,3.89-4h0ZM229.25,71.6c-.33,0-.05-.72.56-1.55.61-.89,1.61-2.89,2.28-4.5.61-1.61,1.33-4.22,1.61-5.77.33-2.05.5-2.39.56-1.17.11,3.33-3.61,12.99-5,12.99h0ZM208.71,47.78c.39-.67,1.83-1.94,3.22-2.83s3.83-1.89,5.39-2.17c2.72-.56,18.15-1.83,18.43-1.55.05.06.55,3.94,1.05,8.66,1.05,9.27.83,12.94-.83,16.1-1.17,2.16-3.61,5.05-4.22,5.05-.22,0,.22-.67,1.05-1.55,2.66-2.78,3.72-6,3.66-11.49,0-2.78-.33-7.49-.67-10.55l-.67-5.55-1.94.17c-16.88,1.28-18.99,1.72-22.71,4.94-1.83,1.55-2.28,1.78-1.78.78h.02ZM209.43,51.34c-1.28,1.11-2.33,1.78-2.33,1.44s1.05-1.39,2.33-2.33c6.55-4.83,17.21-7.55,22.49-5.77,1.33.44,2.39,3.66,2.66,7.88.28,4.44-.22,3.22-1.05-2.78-.56-3.83-1.78-4.83-5.88-4.83-6.66,0-13.55,2.44-18.21,6.38h0ZM207.66,50.23c-.33.17-.56.06-.56-.22,0-.33.22-.61.56-.61.28,0,.56.11.56.22,0,.17-.28.44-.56.61ZM199.55,24.19c.33,1.05-.22,1.61-3.44,3.78-3.66,2.44-5.66,3.16-5.66,2.05,0-.28,1.11-1.17,2.44-1.94,1.33-.78,3.22-2.33,4.16-3.44,1.29-1.45,2.13-1.59,2.5-.44h0ZM191.72,15.41l3.22-1.55,1.67,3.72c.89,2,1.5,4.11,1.33,4.66-.44,1.33-3.66,4.11-6.39,5.5l-2.11,1.11-.89-2.39c-1.33-3.78-1.33-3.89-1.39-6.33-.06-1.28.22-2.5.61-2.78.39-.22,2.17-1.11,3.94-1.94h0ZM184.45,18.97c1.28-1.28,1.83-.61,1.89,2.28.06,1.61.5,3.89,1,5.11.94,2.17.5,3.78-.61,2.39-.5-.56-2.67-7.33-2.89-8.83-.06-.17.22-.55.61-.94h0ZM131.09,24.24c.67-1.28,4.27-5.39,8.05-9.11l6.88-6.83,6.88,6.83c3.77,3.72,7.38,7.83,8.05,9.11,1.33,2.66,2.11,7.05,1.33,7.55-.28.17-.56-.67-.56-1.89-.17-4.05-2.05-6.94-9.05-13.99l-6.66-6.72-6.66,6.72c-7,7.05-8.88,9.94-9.05,13.99,0,1.22-.28,2.05-.56,1.89-.78-.5,0-4.89,1.33-7.55h.02ZM131.93,32.02c1.11-4.33,3.11-8.22,6.22-12.21,2.16-2.72,6.72-6.5,7.88-6.5.22,0,1.5.72,2.89,1.67,2.83,1.89,6.83,6.77,8.94,10.88,1.83,3.61,3.39,9.66,2.72,10.33-.33.33-.61-.5-.78-2.17-.44-3.83-2.39-8.55-5.16-12.33-2.55-3.5-7.05-7.27-8.61-7.27s-6.05,3.78-8.61,7.27c-2.77,3.77-4.72,8.5-5.16,12.27-.11,1.44-.44,2.5-.72,2.33-.67-.39-.67-.33.39-4.28h0ZM162.13,32.74c.28,0,.55.22.55.5,0,.33-.28.72-.55.89-.33.17-.56-.06-.56-.5,0-.5.22-.89.56-.89ZM129.93,34.12c-.33-.17-.55-.56-.55-.89,0-.28.22-.5.55-.5.28,0,.56.39.56.89,0,.44-.28.67-.56.5ZM107.66,19.02c.44.55.28,1.83-.56,4.88-.67,2.28-1.44,4.44-1.72,4.78-.78.94-1.72.28-1.22-.89.22-.5.72-2.17,1.17-3.66.44-1.55.67-3.44.56-4.33-.22-1.61.72-2.05,1.78-.78h0ZM95.45,17.52l1.67-3.66,3.22,1.55c5,2.39,4.77,2.11,4.44,5.61-.17,1.72-.72,4.16-1.22,5.5l-.94,2.33-2.78-1.5c-2.61-1.44-6-4.61-6-5.66,0-.28.72-2.16,1.61-4.16h0ZM92.51,24.19c.22-.61.44-1.28.56-1.39.06-.11.94.72,1.94,1.83.94,1.11,2.83,2.66,4.16,3.44s2.44,1.67,2.44,1.94c0,1.11-2,.39-5.66-2.05-3.22-2.17-3.78-2.72-3.44-3.78h0ZM56.25,66.33c-2-3.66-2.17-6.27-.94-17.04.5-4.39.94-8,1-8.05.28-.28,15.71,1,18.43,1.55,3.28.61,7.61,3.17,8.61,5,.5,1,.06.78-1.78-.78-3.72-3.22-5.83-3.66-22.71-4.94l-1.94-.17-.67,5.55c-.33,3.05-.67,7.77-.67,10.55-.06,5.5,1,8.72,3.66,11.49.83.89,1.28,1.55,1.05,1.55-.56,0-3-2.83-4.05-4.72h0ZM84.96,52.78c0,.33-1.06-.33-2.39-1.44-4.61-3.94-11.49-6.38-18.16-6.38-4.11,0-5.33,1-5.89,4.83-.83,6-1.33,7.22-1.05,2.78.17-2.39.67-5.05,1.11-6,.5-.89,1.17-1.78,1.55-1.89,3.61-1.22,11.44-.06,16.66,2.39,3.94,1.89,8.16,4.83,8.16,5.72h0ZM84.4,49.39c.28,0,.56.28.56.61,0,.28-.28.39-.56.22-.33-.17-.56-.44-.56-.61,0-.11.22-.22.56-.22ZM57.86,58.83c0-1.61.11-1.44.5.94.56,3.39,2.33,8.05,3.89,10.27.61.83.89,1.55.56,1.55-1.39,0-5-9.33-4.94-12.77h-.01ZM33.6,73.93c1.06.17,4.94,8.5,4.39,9.38-.61,1-1.11.44-2.28-2.72-.72-1.72-1.89-3.78-2.61-4.55-1.39-1.44-1.11-2.44.5-2.11ZM72.74,84.37c0,.94-1.72,1.33-2.28.5-.61-1,.28-1.89,1.39-1.44.5.22.89.61.89.94ZM74.35,84.37c1.67.83,1.94,1.67.61,1.67-.67,0-1.06-.22-.83-.5.17-.28.06-.67-.28-.89-1-.61-.56-.89.5-.28ZM64.97,83.82c-.72,0-1.11-.39-1.11-1.11s.39-1.11,1.11-1.11,1.11.39,1.11,1.11-.39,1.11-1.11,1.11ZM68.02,81.82c-.5-.22-.78-.5-.61-.61.11-.17.72,0,1.28.33,1.11.67.78.78-.67.28ZM59.53,82.82c-.83.83-2.44.06-2.22-1.05.11-.56.61-1.06,1.17-1.17,1.11-.22,1.89,1.39,1.05,2.22ZM52.98,81.71c.72,1.22-.17,2.28-1.55,1.78-1.11-.44-1-2.72.17-2.72.44,0,1.05.44,1.39.94h0ZM47.09,83.7c.22,1.33-1,2.11-2.44,1.55-.5-.17-.78-.83-.67-1.55.11-.94.56-1.28,1.55-1.28s1.44.33,1.55,1.28h0ZM15.28,74.49c-1-1.44-1.78-2.66-1.67-2.83.11-.11,1.61,0,3.33.22,1.67.17,3.05.39,3.05.44s.22.89.5,1.83c.44,1.67.39,1.78-1.44,2.33-1.83.56-1.94.5-3.77-2h0ZM24.72,84.87c-.28-.33-2.33-6.72-2.44-7.77-.06-.17,1.44-.72,3.28-1.22,1.83-.56,3.83-.94,4.39-.94,1.39,0,3.55,2.78,5,6.55l1.17,2.94-1.55.56c-1.5.61-9.22.5-9.83-.11h-.02ZM25.72,88.15c-1.72-1.39-.67-1.83,4.83-1.89,5-.06,6.44.28,5.11,1.11-1.17.72-9.27,1.33-9.94.78ZM37.76,87.15c0-.5.28-1.17.67-1.55,1.89-1.89,5,.33,3.78,2.66-1.06,1.94-4.44,1.11-4.44-1.11h0ZM52.2,87.31c1.11-.11,2.61.06,3.33.39l1.39.61-1.39-.33c-.78-.11-2.28-.33-3.33-.39l-1.94-.06s1.94-.22,1.94-.22ZM57.42,88.37c.11-.11,1,.22,1.94.72,2.39,1.17,2.16,1.61-.22.44-1.06-.5-1.83-1-1.72-1.17h0ZM4.95,124.35c-.94.5-1.39.44-2.22-.33-1.06-.94-1.06-1.05-.17-1.72.56-.39,1.28-.72,1.61-.72.28,0,.89.5,1.22,1.11.61.94.56,1.17-.44,1.67h0ZM30.82,144.33c-.17.28-.56.56-.89.56-.28,0-.5-.28-.5-.56,0-.33.39-.56.89-.56.44,0,.67.22.5.56ZM28.66,143.83c.56,1-3.05.06-5.61-1.44-1.22-.72-2.89-2-3.72-2.89-1.5-1.61-10.94-15.16-10.99-15.77,0-.17.56-.56,1.22-.89.72-.33,3.83-2.44,6.94-4.72,3.05-2.28,6.94-4.72,8.55-5.44,3.05-1.28,7.88-1.72,8.77-.78.33.28-.83.5-3.16.56-2.89,0-4.33.33-6.5,1.44-3,1.55-14.43,9.77-14.43,10.33s6.77,10.55,9.05,13.38c2.28,2.78,6.38,5.61,8.22,5.61.72,0,1.44.28,1.67.61h-.01ZM36.15,111.85c.83.56.56,1.39-.33,1.06-.44-.22-.67-.56-.5-.83.17-.28.56-.39.83-.22h0ZM18,120.9c-3.94,3.22-4.27,4.5-2.05,8.5,2.89,5.39,9.49,10.83,15.43,12.71,1.22.39,1.89.83,1.5,1-.39.11-2.55-.67-4.77-1.72-4.89-2.33-11.05-8.05-13.27-12.33-1.78-3.44-1.83-4.16-.28-6.11,1.61-2.05,7.05-5.5,10.88-6.94,3.61-1.39,11.71-2.5,12.44-1.78.33.33-1.44.61-4.39.78-6.05.39-10.94,2.22-15.49,5.88h0ZM68.19,123.12l5.16.28-1.78,1.83c-1.72,1.78-2.05,1.89-5.66,1.89-12.6,0-27.82-11.16-35.2-25.82-2.05-4.05-4.55-10.1-4.61-11.16,0-.39,1.61-.72,4-.94,2.22-.17,4.44-.39,4.89-.5.56-.11.89.67,1.22,3.16.22,1.83,1.05,5.22,1.83,7.55,4.77,14.21,15.82,22.93,30.15,23.71ZM39.54,91.81c1.33-.39,2.78,1.05,2.28,2.33-.28.78-2.44,1.05-3.11.39-.83-.78-.33-2.33.83-2.72ZM45.7,106.63c-.78.78-2.5-.06-2.28-1.11.11-.5.61-.94,1.17-1.05,1.11-.22,1.89,1.39,1.11,2.16ZM58.86,105.41c1.78.33,1.83.44.61.72-.72.22-1.61.06-2-.28-.94-.89-.89-.94,1.39-.44ZM45.54,95.86c0-.33.72.5,1.55,1.89,1.5,2.33,3.94,4.33,7.61,6.27.89.44,1.39.83,1.11.89-2.33.06-10.27-6.94-10.27-9.05ZM41.65,103.41c0,.39-.22.33-.56-.17-.67-1.06-.67-1.28,0-.83.28.17.56.67.56,1ZM40.37,100.31c-.33-.94.17-2.05.94-2.05,1.22,0,2.16,1,1.83,1.89-.39,1.05-2.39,1.17-2.78.17h0ZM46.15,110.69c.33.72,0,.56-.83-.5-1.61-1.89-1.83-2.39-.56-1.39.44.44,1.11,1.28,1.39,1.89ZM49.98,110.74c0,1-.94,1.55-1.94,1.17-1-.33-1.05-1-.22-1.83.78-.78,2.16-.33,2.16.67h0ZM50.87,115.02c.28.39.11.44-.39.17-2.05-1.17-3.05-2.44-1.11-1.39.61.28,1.28.83,1.5,1.22ZM53.31,114.63c.44,0,.89.44,1,.94.11.72-.17,1-1,1s-1.11-.28-1-1c.11-.5.56-.94,1-.94ZM56.64,118.02c0,.89-.11.94-1.5.39-.94-.39-.94-.44,0-.61.5-.11.78-.44.61-.78-.22-.39-.11-.44.22-.22.39.22.67.78.67,1.22ZM64.41,116.57c.61-.33,1.11-.44,1.11-.33,0,.17-.5.56-1.11.89-.61.33-1.11.44-1.11.33,0-.17.5-.56,1.11-.89ZM58.92,117.96c.39,0,.83.44.94.94.17,1-1,1.39-1.78.61-.56-.56-.06-1.55.83-1.55h0ZM62.03,120.4c1.11.67.78.78-.67.28-.5-.22-.78-.5-.61-.61.11-.17.72,0,1.28.33ZM76.63,120.52c0,.22-.94.72-2.11,1-3.83,1.11-4,.61-.22-.67,1.28-.44,2.33-.61,2.33-.33ZM70.52,120.74c0,.89-.67,1.11-1.28.44-.67-.61-.44-1.28.44-1.28.44,0,.83.39.83.83h0ZM64.75,120.9c-.56.11-.89-.17-.89-.72s.39-.83.94-.72c1.22.22,1.11,1.22-.06,1.44h0ZM72.3,110.63c-1.33,1.39-1.78,2.33-1.78,3.83,0,2.05,1.11,3.78,2.5,3.78,1,0,2.61-1.67,2.33-2.44-.28-.78-2.61-1.17-2.61-.39,0,.33.22.61.56.61.28,0,.56.22.56.56,0,.72-1.5.72-1.94,0-.67-1.06.33-2.78,1.61-2.78,2.44,0,3.39,2.61,1.61,4.55-2.16,2.44-5.72-.06-5.72-4,0-1.55.44-2.55,1.61-3.83.89-.94,1.94-1.72,2.33-1.72s-.06.83-1.05,1.83h0ZM66.3,116.02c-.44,0-.17-.44.72-1.17.89-.72.94-.67.22.17-.39.56-.83,1-.94,1ZM75.52,99.81c-.61,2.55-1.11,5.05-1.11,5.55,0,1-6.66,7.38-10.27,9.77-2.78,1.94-5.94,1.94-7.77.06-1.67-1.61-1.72-2.22-.28-4.55,1.55-2.61,4.72-4,9.38-4.22,2.16-.06,4.22-.44,4.61-.83.5-.5-.28-.67-3.83-.67-7.94,0-14.27-2.78-17.93-7.88-2-2.72-2.16-5.33-.5-6.88,1.78-1.61,6.77-1.33,10.66.5,3.61,1.83,8.22,6.39,10.83,10.77,1.72,2.94,1.83,3.05,1.5,1.28-.44-2.17-.39-10.83.06-12.38.67-2.16,1.05-.72.72,2.78-.39,4.5.28,6.55.83,2.5.22-1.55.61-3,.89-3.17.72-.44.72-.22-.28,4.72-.44,2.28-.94,5.11-1.11,6.22-.22,1.55-.83,2.44-2.39,3.61-1.11.83-3.39,2.72-4.94,4.28-1.61,1.5-3.11,2.61-3.28,2.39-.22-.22.83-1.55,2.33-2.94,2.94-2.78,1.78-2.5-2.72.67-1.44,1.05-2.78,1.89-3,1.89-1,0,2.66-3.05,5.39-4.5,2.33-1.28,2.66-1.55,1.39-1.33-2.72.56-6.39,2.66-7.38,4.28-.83,1.39-.83,1.55.17,2.61,2.05,2.33,3.89,1.5,10.49-4.77l4.22-4.05,1.39-6.16c1.61-7.27,1.67-8.16.5-9.83-1.11-1.61-2.78-1.55-3.89.17-.72,1.17-.89,2.28-.61,5.55.17,2.28.22,4.16.06,4.16-.72,0-1.89-3.72-1.89-6.11,0-5.33,2.89-8.05,6-5.72,3.16,2.33,3.55,4.94,1.78,12.27l-.02-.04ZM61.86,90.48c.11,0,.56.44.94.94.72.89.67.94-.22.22-.89-.72-1.17-1.17-.72-1.17h0ZM64.58,92.64c.44.33.94.44,1.11.22.22-.17.39-.06.39.28,0,.28.17,1.05.39,1.61s-.22.33-1.11-.67c-1.61-1.83-1.94-2.44-.78-1.44ZM77.02,86.7c1.22.22,1.11,1.22-.06,1.44-.56.11-.89-.17-.89-.72s.39-.83.94-.72h0ZM78.13,93.09c-.17.56-.28.11-.28-.94s.11-1.5.28-1c.11.56.11,1.44,0,1.94ZM81.24,91.14c.56-.11.94.17.94.67,0,.56-.5.89-1.17.89-1.33,0-1.17-1.28.22-1.55h0ZM78.13,96.14c-.17.39-.28.11-.28-.67s.11-1.06.28-.72c.11.39.11,1.06,0,1.39ZM83.79,95.2c.67-.39,1.33.67.89,1.39-.39.61-1.39.22-1.39-.56,0-.28.22-.61.5-.83ZM89.07,94.37c-.22,1.39-.5,2.72-.61,2.94-.17.28-1.17-1.11-2.28-3-2.66-4.44-8.99-10.38-13.55-12.6-5.5-2.72-10.27-3.61-16.82-3.22-5.89.33-10.77,1.39-14.38,3.17-1.22.56-2.22,1-2.28.89,0-.06-.61-1.61-1.33-3.44s-1.55-3.55-1.78-3.89c-1.11-1.22-.28-1.83,3.22-2.55,6.16-1.22,18.38-1,23.93.5,10.83,2.89,19.99,8.94,24.65,16.21,1.39,2.16,1.55,2.83,1.22,5h.01ZM62.19,80.37c-1.05,0-1.5-.11-1-.28.56-.11,1.44-.11,1.94,0,.56.17.11.28-.94.28ZM99.23,83.09l-2.83.56c-1.55.33-3,.44-3.22.28-.17-.22-1.28-2.78-2.39-5.66-3.5-8.94-6.27-14.1-9.49-17.66-3.72-4.11-8.11-6.55-10.99-6-2.39.44-3.17,1.44-3.5,4.39-.67,5.89,6.27,14.32,17.27,20.93,8.72,5.27,8.22,4.72,7.11,8.16-.5,1.61-1.06,2.94-1.22,2.94s-.72-1.06-1.28-2.28c-2.28-4.89-11.1-11.66-19.38-14.93-5.11-1.94-6.38-3.33-8.44-8.88-2-5.39-2.33-13.77-.72-17.16.61-1.33,1-1.44,4.44-1.61,4.33-.17,8.44.83,13.1,3.22,4.16,2.11,7.83,5.33,7.83,6.83,0,2.83,2.33,10.66,4.55,15.21,1.72,3.55,3.28,5.77,5.77,8.27l3.39,3.39h0ZM89.56,82.26c-.83-.56-4.05-2.72-7.16-4.72-10.99-7.22-17.43-17.05-13.55-20.93,2.22-2.22,5.89-.83,10.83,4.16,3.55,3.55,6.27,8.27,9.11,15.55.94,2.44,2,4.89,2.33,5.44.83,1.55.22,1.72-1.55.5h0ZM107.72,80.76c.89.44,2,.83,2.5.83s.72.22.56.56c-.5.78-.83.72-2.94-.56-2.22-1.39-2.33-2-.11-.83h0ZM116.05,71.44c0,.28-1.05.5-2.28.56-3,.17-4.94,1.89-4.94,4.44,0,1.44.28,1.89,1.33,2.16.78.17,1.67.17,1.94-.06.94-.56.72-2.5-.28-2.5-.56,0-.78.33-.56.83.17.5,0,.83-.5.83-1.11,0-1.06-2.16.06-2.61,2.22-.83,3.78,1.94,2.11,3.78-3.28,3.61-7.16-2.17-3.94-5.94,1-1.17,1.94-1.55,4.16-1.78,1.61-.11,2.89,0,2.89.28h.01ZM104.94,79.1c-.72-.44-.72-1.22.06-1.67.83-.56,1.28.06.83,1.11-.17.5-.56.72-.89.56ZM99.39,72.82c.61,1.22.56,1.22-.22.22-.94-1.17-1.06-1.44-.61-1.44.11,0,.5.56.83,1.22ZM104.5,71.77c.44.17.28.33-.33.33-.61.06-.94-.11-.72-.28.17-.17.67-.22,1.05-.06h0ZM101.89,73.66c.28-.06.61.33.72.83.11.61-.17,1-.72,1-.94,0-1-1.67,0-1.83ZM104.17,80.6c1.33.94,2.44,1.83,2.44,1.94s-1.39.17-3.05.17c-2.94,0-3.28-.17-5.89-2.61-4.66-4.33-8.49-11.66-10.1-19.38-1.11-5.05-1.17-16.1-.11-21.04.72-3.33,3.33-11.99,3.94-13.16.11-.17,1.83.72,3.78,2.05,1.94,1.28,3.89,2.5,4.27,2.61.56.17.44.67-.44,1.89-5.11,7.27-7.88,18.04-6.77,26.32,1.11,7.83,6.33,17.16,11.94,21.21h-.01ZM117.21,38.46c-.39.39-.83.33-1.44-.17-1.17-.94-.83-2.5.56-2.5,1.22,0,1.83,1.72.89,2.66h0ZM119.38,36.85c0-.11.5.06,1.11.44.56.39.94.78.83.94-.22.22-1.94-1-1.94-1.39h0ZM100.95,39.62c-.67.39-1.17.33-1.78-.17-1.22-1-1.11-2.11.17-2.83.83-.39,1.33-.33,2,.33,1,1.05.89,1.83-.39,2.66h0ZM109.61,35.85c-.5-.17-.78-.83-.67-1.55.11-.94.56-1.28,1.55-1.28s1.44.33,1.55,1.28c.22,1.33-1,2.11-2.44,1.55h0ZM106.28,34.24c-.89,1.39-3.05,1.61-3.94.39s-.89-1.33.11-2.61c1.55-2.11,5.22.06,3.83,2.22ZM125.26,46.78c-.61-.67-.11-2.11.78-2.11.44,0,.89.56,1,1.22.17,1.22-.89,1.78-1.78.89ZM129.1,46.62c.11,0,.55.56.89,1.22.61,1.17.61,1.22-.22.5-.89-.72-1.28-1.72-.67-1.72ZM118.82,50.5c0,.44-.61-.67-1.39-2.5-.72-1.78-2.22-4.16-3.33-5.22-2.05-2.11-2.55-2.89-1-1.67,2.44,1.94,5.72,7.33,5.72,9.38h0ZM129.93,50.23c.44,0,.89.44,1,.94.11.72-.17,1-1,1s-1.11-.28-1-1c.11-.5.55-.94,1-.94ZM125.88,42.79c-.83-.78-1.5-1.61-1.5-1.83,0-.28.33-.17.67.22.39.39,1.11,1.22,1.55,1.83.55.83.39.78-.72-.22ZM122.6,41.95c-1.05,1.05-2.11.61-2.11-.89,0-.56.28-1.22.61-1.44.33-.17,1,.06,1.5.56.83.83.83.94,0,1.78h0ZM102.28,47.73l.06-3.61.39,4.16c.17,2.39.89,5.33,1.61,6.94.67,1.5.94,2.5.61,2.16-1.39-1.39-2.72-6.16-2.66-9.66h0ZM94.73,57.89c-.61-.67-.11-2.11.78-2.11.44,0,.89.56,1,1.22.17,1.22-.89,1.78-1.78.89ZM93.45,53.56c-.06-1.22.06-1.78.22-1.28.11.56.11,1.55,0,2.22-.11.72-.22.28-.22-.94ZM96.62,51.89c-.61.39-2.22-.67-2.22-1.39,0-.22.39-.72.83-1.11,1-.83,1.94-.28,1.94,1.11,0,.56-.28,1.22-.56,1.39h0ZM94.51,47.84c-.33.33-.39,0-.22-1.06.28-1.17.39-1.28.56-.5.11.56,0,1.22-.33,1.55h0ZM98.39,45.06c-.89.89-2.33.11-2.33-1.22,0-.72.39-1.11,1.11-1.11,1.33,0,2.11,1.44,1.22,2.33ZM106.22,60.16c-.78-.22-1.11-.61-.89-1.11.28-.72.44-.67,1.33.11,1.28,1.17,1.17,1.39-.44,1ZM94.23,61.16c-.17.39-.28.11-.28-.67s.11-1.05.28-.72c.11.39.11,1.05,0,1.39ZM95.28,62.55c.56-.5,1.89.22,1.89,1,0,.94-.94,1.55-1.67,1.11-.61-.39-.72-1.55-.22-2.11ZM96.34,66.22c.63,0,.79.41.5,1.22-.28.72-.44.78-.83.17-.67-1.05-.61-1.39.33-1.39ZM97.62,70.71c-.78-.5-.5-1.89.33-1.89,1.17,0,1.72,1.17.83,1.67-.39.28-.94.33-1.17.22h0ZM120.49,67.88l-3.05,2.39-7.5-.06c-6.44,0-7.72-.17-9.05-1.06-2.61-1.78-3.28-4.39-1.67-6.38,2.22-2.72,7.72-2,12.05,1.61,3.89,3.22,5.05,2.78,1.33-.56-5.27-4.66-8.77-11.27-8.77-16.49,0-2.89,1.55-6.22,3.11-6.61,3.5-.89,7.94,3.39,9.77,9.38,1.17,3.89,1.17,3.61.28,15.49-.06.89-.39,1.55-.67,1.61-2.78.28-13.05.11-13.05-.17s1.67-.44,3.72-.5c4.61,0,3.33-.72-2.39-1.33-2.61-.33-3.44-.56-2.72-.83,1.05-.39,5.27.06,8.22.83.67.17.39-.17-.72-.78-4.16-2.33-9.44-2-9.44.67,0,.72.5,1.78,1.17,2.39,1.05.94,1.94,1.06,8.22.89,6.83-.17,7.05-.22,9.49-1.89,8.88-6.22,11.44-9.33,9.33-11.44-1.83-1.83-5.38.33-7.44,4.5l-1.39,2.89,1.55-1.94c2.33-2.94,4.61-5,5.55-5,.5,0,.11.56-.89,1.44-.94.78-2.5,2.44-3.5,3.72l-1.83,2.33,2.72-2.11c1.5-1.11,3-2.05,3.33-2.05.33.06-.28.72-1.33,1.55s-3.11,2.55-4.5,3.83c-3,2.83-3.61,3-2.44.72.44-.89.83-2.39.83-3.33,0-4,4.11-8.88,7.5-8.88s4.72,4,2.55,7.55c-1,1.67-1.83,2.44-8.38,7.61h0ZM119.44,53.17c.28.72.78,1.11,1.11.89.33-.17.17.28-.33,1.11-.56.78-1.06,1.44-1.17,1.44s-.22-1.05-.17-2.39c0-2,.11-2.17.56-1.06h0ZM132.21,53.39c.78,1.17.56,2.11-.33,1.78-.63-.26-.79-.8-.5-1.61.28-.72.44-.78.83-.17ZM132.21,56.06c.67,0,1.33,1.61.89,2.05-.22.17-.72.17-1.17,0-.89-.33-.61-2.05.28-2.05ZM132.21,62.38c.67-.39,1.72.83,1.28,1.55-.17.22-.67.44-1.11.44-.94,0-1.05-1.44-.17-2h0ZM131.82,67.71c.44,0,.94.22,1.17.5.39.67-.67,1.33-1.39.89-.83-.5-.67-1.39.22-1.39ZM131.04,74.93c-.22,0,0-.83.5-1.89.5-1,1-1.78,1.11-1.67.33.28-1.11,3.55-1.61,3.55h0ZM136.59,70.49c-1.39,1.17-2.55,2.05-2.67,2-.05-.11.11-.89.5-1.78.94-2.55.83-11.66-.22-15.77-2.05-7.72-6.33-13.94-12.88-18.6-3.66-2.66-10.49-6-13.38-6.61l-1.67-.39,1.28-3.72c.67-2.05,1.28-4.16,1.28-4.72,0-1.33.33-1.22,4.55,1.22,16.49,9.66,26.48,25.43,25.87,40.97l-.17,5.27-2.5,2.11v.02ZM149.36,66.83c-1.67-.89-2.72-1.78-2.55-2.16.11-.39,1.39-4.28,2.83-8.66,2.17-6.61,2.66-8.94,2.89-13.55.39-6.72-.67-11.22-3.16-13.66-3.39-3.39-7.44-1.22-9.22,4.83-1.61,5.55-.89,12.66,2.28,22.37,1.44,4.39,2.72,8.27,2.83,8.66.17.39-.89,1.28-2.55,2.16l-2.89,1.5.33-1.55c.78-3.94.89-6.77.39-9.05-1.33-6.55-2.55-10.1-5.05-14.71-1.44-2.78-2.66-5.5-2.72-6.11,0-.67.33-2.61.78-4.39,1.33-5.11,4.44-10.44,8.05-13.88,1.89-1.83,3.78-3.11,4.44-3.11s2.61,1.33,4.5,3.16c3.83,3.61,7.33,10.05,8.33,15.27l.67,3.16-2.83,5.44c-2.55,5.05-3.89,8.88-5.22,15.16-.44,2.28-.33,5.11.44,9.05l.33,1.55-2.89-1.5v.02ZM146.03,63.27c-.33,0-2.39-6.5-4.28-13.32-1.72-6.27-1.55-14.55.33-18.21,2.28-4.44,5.61-4.44,7.88,0,1.5,2.89,2.05,10.44,1.11,14.88-.78,3.83-4.66,16.66-5.05,16.66h0ZM159.97,72.1c.28.78.83,1.72,1.17,2.11.33.44.33.72.06.72-.67,0-1.78-2.11-1.78-3.33,0-.44.28-.22.56.5h0ZM160.47,69.1c-.72.44-1.78-.22-1.39-.89.22-.28.72-.5,1.17-.5.89,0,1.05.89.22,1.39ZM158.02,71.82c.33.83-.17.61-1.94-.83-1.33-1.06-2.61-2.39-2.89-3-.89-2.17-.56-10.49.61-14.94,3.27-12.44,12.16-23.49,24.87-30.92,4.22-2.44,4.55-2.55,4.55-1.22,0,.55.61,2.66,1.28,4.72l1.28,3.72-1.67.39c-2.89.61-9.66,3.94-13.38,6.55-7.88,5.66-12.05,12.66-13.55,22.65-.61,3.94-.22,10.33.83,12.88h.01ZM174.9,38.57c-.94-.56-.44-2.72.72-2.94.5-.11,1.11.22,1.28.72.44,1.11-1.05,2.78-2,2.22ZM193.67,38.12c-.28,1.44-1.89,2.17-2.89,1.33-1.11-.94-1.11-1.44,0-2.5,1.06-1.06,3.17-.22,2.89,1.17ZM170.85,38.29c-.33,0-.44-.06-.33-.17.11-.06.72-.5,1.33-.94.7-.52.81-.48.33.11-.39.56-1,1-1.33,1ZM180.01,34.29c.11-.94.56-1.28,1.55-1.28s1.44.33,1.55,1.28c.11.72-.17,1.39-.67,1.55-1.44.56-2.66-.22-2.44-1.55h0ZM185.45,33.29c0-.5.28-1.17.67-1.55,1.83-1.83,5,.44,3.77,2.66-1.05,1.94-4.44,1.11-4.44-1.11ZM174.62,46.89c1.39-2.89,2.55-4.44,4.44-5.83.61-.44.17.22-1,1.44-1.17,1.28-2.72,3.72-3.44,5.55-.78,1.78-1.39,2.89-1.39,2.44s.61-2.11,1.39-3.61h0ZM162.63,52.17c-.39.28-.94.33-1.22.17-.67-.39-.28-1.94.56-2.28,1-.28,1.61,1.55.67,2.11h0ZM162.46,48.17c-.67.59-.78.48-.33-.33.33-.72.78-1.17,1-1,.17.22-.11.78-.67,1.33ZM165.02,45.95c.11-.67.56-1.28,1-1.28,1.22,0,1.05,2.17-.17,2.39-.83.17-1-.06-.83-1.11ZM165.46,43.01c.44-.61,1.17-1.44,1.5-1.83.39-.39.72-.5.72-.22,0,.22-.67,1.05-1.5,1.83-1.11,1-1.28,1.06-.72.22ZM171.01,42.45c-.61.39-2.22-.67-2.22-1.39,0-.22.39-.72.83-1.11,1-.83,1.94-.28,1.94,1.11,0,.56-.28,1.22-.55,1.39ZM172.62,53.17c.44-1.05.56-.89.56,1.22l.05,2.5-1.11-1.39c-1.22-1.55-1.33-1.89-.56-1.39.33.17.78-.22,1.06-.94ZM160.52,53.39c.67,1.06.61,1.39-.33,1.78-.89.33-1.05-.17-.5-1.61.28-.72.44-.78.83-.17ZM159.41,56.28c.67-.39,1.72.83,1.28,1.55-.17.22-.67.44-1.11.44-.94,0-1.06-1.44-.17-2h0ZM159.41,62.16c.67,0,1.33,1.61.89,2.05-.22.17-.72.17-1.17,0-.89-.33-.61-2.05.28-2.05ZM180.12,70.32c-6.11-.22-5.55.06-13.77-6.61-3.94-3.22-5.27-7.05-3.33-9.77,2.67-3.83,10.22,1.83,10.22,7.66,0,.94.39,2.44.83,3.33,1.17,2.28.56,2.11-2.44-.72-1.39-1.28-3.44-3-4.5-3.83s-1.67-1.5-1.33-1.55c.33,0,1.83.94,3.33,2.05l2.72,2.11-1.83-2.33c-1-1.28-2.55-2.94-3.5-3.72-1-.89-1.39-1.44-.89-1.44.94,0,3.22,2.05,5.55,5l1.55,1.94-1.39-2.89c-2.05-4.16-5.61-6.33-7.44-4.5-2.11,2.11.44,5.22,9.33,11.44,2.44,1.67,2.67,1.72,9.5,1.89,6.27.17,7.16.06,8.22-.89.67-.61,1.17-1.67,1.17-2.39,0-2.66-5.27-3-9.44-.67-1.11.61-1.39.94-.72.78,2.94-.78,7.16-1.22,8.22-.83.72.28-.11.5-2.72.83-5.72.61-7,1.33-2.44,1.33,2.11.06,3.77.22,3.77.5s-10.27.44-13.05.17c-.33-.06-.61-.72-.67-1.61-.89-11.88-.89-11.6.28-15.49,1.83-6,6.27-10.27,9.77-9.38,1.56.39,3.11,3.72,3.11,6.61,0,5.22-3.5,11.83-8.77,16.49-3.72,3.33-2.55,3.78,1.33.56,3.05-2.5,6.16-3.61,9.11-3.11,5.89.94,4.39,8.05-1.94,8.94-1.22.17-4.72.22-7.83.11h0ZM189.78,47.56c.11,3.33-1.5,9.16-2.67,9.88-.28.17,0-.89.67-2.33.67-1.5,1.39-4.5,1.55-6.83l.39-4.16.06,3.44ZM197.33,45.51c.11,0,.33.61.44,1.39.17.72.06,1.22-.17,1.06-.5-.28-.72-2.44-.28-2.44h0ZM195.5,49.06c.33-.17,1,.06,1.5.56.83.83.83.94,0,1.78-1.05,1.05-2.11.61-2.11-.89,0-.56.28-1.22.61-1.44h0ZM198.61,52.28c.11.56.11,1.55,0,2.22-.11.72-.22.28-.22-.94-.06-1.22.06-1.78.22-1.28ZM196.55,55.78c1.22,0,1.05,2.16-.17,2.39-.83.17-1-.06-.83-1.11.11-.67.56-1.28,1-1.28ZM194.78,42.84c.89-.17,1.22.11,1.22.94,0,1.33-.83,1.94-2,1.5-1.28-.5-.72-2.22.78-2.44ZM186.12,60.05c-1.67.67-1.94.44-.94-.67.78-.89,1.11-.94,1.44-.44.28.44.11.89-.5,1.11ZM198.05,59.78c.11.39.11,1.05,0,1.39-.17.39-.28.11-.28-.67s.11-1.05.28-.72ZM195.72,62.5c.5-.17,1,.06,1.22.56.39,1.06-.61,2.17-1.44,1.67-.89-.56-.72-1.83.22-2.22h0ZM195.72,66.22c.63,0,.79.41.5,1.22-.28.72-.44.78-.83.17-.67-1.05-.61-1.39.33-1.39ZM193.5,68.99c1.11-.39,1.61.11,1.22,1.17-.22.5-.72.72-1.22.56-1.06-.44-1.06-1.28,0-1.72h0ZM179.12,78.87c-1.66-1.83-.11-4.61,2.11-3.78,1.11.44,1.17,2.61.06,2.61-.5,0-.67-.33-.5-.83.22-.5,0-.83-.55-.83-1,0-1.22,1.94-.28,2.5.28.22,1.16.22,1.94.06,1.06-.28,1.33-.72,1.33-2.16,0-2.55-1.94-4.28-4.94-4.44-1.22-.06-2.28-.28-2.28-.56s1.28-.39,2.89-.28c3.39.33,5.44,2.22,5.44,5,0,3.33-3.22,4.94-5.22,2.72h0ZM192.67,72.71c.33-.61.72-1.11.89-1.11.11,0,0,.5-.33,1.11s-.72,1.11-.89,1.11c-.11,0,0-.5.33-1.11ZM190.89,74.49c.11.61-.17,1-.72,1-.94,0-1-1.67,0-1.83.28-.06.61.33.72.83ZM188,72.1c-.61.06-.94-.11-.72-.28.17-.17.67-.22,1.05-.06.44.17.28.33-.33.33h0ZM186.5,77.15c.78,0,1.28,1,.89,1.67-.22.33-.61.44-.89.28-.67-.44-.67-1.94,0-1.94h0ZM181.45,82.37c-.44-.28-.17-.56.72-.83.78-.17,2-.67,2.66-1.06.83-.44,1.17-.44.94-.06-.67,1-3.66,2.33-4.33,1.94h0ZM185.45,82.54c0-.11,1.11-1,2.44-1.94,5.61-4.05,10.83-13.38,11.94-21.21,1.11-8.27-1.67-19.04-6.77-26.32-.89-1.22-1-1.72-.44-1.89.39-.11,2.33-1.33,4.27-2.61,1.94-1.33,3.66-2.22,3.77-2.05.72,1.22,3.72,11.6,4.27,14.82.83,4.83.33,17.21-.89,21.65-1.61,5.89-5.22,12.44-8.88,16.21-2.26,2.33-4.44,3.5-6.55,3.5-1.72,0-3.16-.06-3.16-.17h0ZM200.88,88.09c-1.11-3.44-1.61-2.89,7.11-8.16,10.99-6.61,17.93-15.05,17.27-20.93-.33-2.94-1.11-3.94-3.5-4.39-2.89-.56-7.27,1.89-10.99,6-3.22,3.55-6,8.72-9.49,17.66-1.11,2.89-2.22,5.44-2.39,5.66-.22.17-1.67.06-3.22-.28l-2.83-.56,3.39-3.39c2.5-2.5,4.05-4.72,5.77-8.27,2.22-4.55,4.55-12.38,4.55-15.21,0-1.5,3.66-4.72,7.83-6.83,4.66-2.39,8.77-3.39,13.1-3.22,3.55.17,3.83.28,4.61,1.83,1.28,2.66,1,11.38-.5,15.82-2.28,6.55-3.5,7.94-8.83,9.99-8.27,3.28-17.1,10.05-19.38,14.93-.56,1.22-1.11,2.28-1.28,2.28s-.72-1.33-1.22-2.94h0ZM200.72,83.26c-.44,0-.33-.83.17-1.44.28-.28,1.17-2.39,2.05-4.66,2.77-7.38,5.88-12.82,9.44-16.38,4.94-5,8.61-6.39,10.83-4.16,3.89,3.89-2.55,13.71-13.55,20.93-3.11,2-6.27,4.11-7.11,4.66-.83.61-1.67,1.05-1.83,1.05ZM203.05,94.92c-.44-2.72-.39-3.17,1.17-5.61,4.66-7.22,13.82-13.27,24.65-16.16,3.72-1,6.16-1.22,12.38-1.22,7.27-.06,15.27.94,15.27,1.83,0,.22-.61,1.67-1.39,3.22-.72,1.55-1.5,3.5-1.72,4.27-.17.78-.39,1.44-.44,1.44s-1.11-.5-2.33-1.05c-3.61-1.78-8.5-2.83-14.38-3.17-6.55-.39-11.33.5-16.82,3.22-4.55,2.28-10.88,8.16-13.55,12.66-2.05,3.5-2.33,3.55-2.83.56h0ZM229.87,80.37c-1.05,0-1.5-.11-1-.28.55-.11,1.44-.11,1.94,0,.55.17.11.28-.94.28ZM215.21,86.59c.44,0,.78.39.78.83,0,.83-1.17,1.17-1.83.5-.5-.56.11-1.33,1.06-1.33h0ZM213.88,92.14c0-1.06.11-1.5.28-1,.11.56.11,1.44,0,1.94-.17.56-.28.11-.28-.94ZM211.04,92.7c-.67,0-1.17-.33-1.17-.89,0-.5.39-.78.94-.67,1.39.28,1.55,1.55.22,1.55h0ZM213.88,95.48c0-.78.11-1.06.28-.72.11.39.11,1.06,0,1.39-.17.39-.28.11-.28-.67ZM208.49,96.59c-.39.61-1.39.22-1.39-.56,0-.28.22-.61.5-.83.67-.39,1.33.67.89,1.39ZM217.65,105.19c-.06-.61-.5-3-1.11-5.27-1.22-4.94-1.33-8.11-.39-9.94.33-.72,1.33-1.83,2.17-2.44,3.11-2.33,6,.39,6,5.72,0,2.39-1.17,6.11-1.89,6.11-.17,0-.11-1.89.05-4.16.28-3.28.11-4.39-.61-5.55-1.11-1.72-2.78-1.78-3.89-.17-1.17,1.67-1.11,2.55.5,9.88,1.44,6.22,1.44,6.27,4.28,8.83,1.61,1.39,3.39,3.11,4,3.83,1.55,1.72,4.39,3.44,5.72,3.44.61,0,1.56-.5,2.11-1.17,1-1.05,1-1.22.17-2.61-1-1.61-4.66-3.72-7.38-4.28-1.28-.22-.94.06,1.39,1.33,2.72,1.44,6.38,4.5,5.38,4.5-.22,0-1.55-.83-3-1.89-4.5-3.17-5.66-3.44-2.72-.67,1.5,1.39,2.55,2.72,2.33,2.94-.17.22-1.67-.89-3.28-2.39-1.55-1.55-3.83-3.44-4.94-4.28-1.55-1.17-2.17-2.05-2.39-3.61-.17-1.11-.67-3.94-1.11-6.22-1-4.94-1-5.16-.28-4.72.28.17.67,1.61.89,3.17.55,4.05,1.22,2,.83-2.5-.33-3.5.06-4.94.72-2.78.44,1.55.5,10.22.06,12.38-.33,1.78-.22,1.67,1.5-1.28,4.33-7.38,11.05-12.21,17.1-12.27,5.61-.06,7.27,3.28,3.89,7.88-3.66,5.11-9.99,7.88-17.93,7.88-3.55,0-4.33.17-3.83.67.39.39,2.44.78,4.61.83,4.66.22,7.83,1.61,9.38,4.22,1.44,2.33,1.39,2.94-.28,4.55-1.83,1.89-5,1.89-7.77-.06-3.89-2.61-10.27-8.77-10.27-9.94v.04ZM229.92,91.14c-.39.56-.83,1-.94,1-.44,0-.17-.44.72-1.17.89-.72.94-.67.22.17ZM227.09,93.53c-.78.94-1.5,1.78-1.61,1.94-.11.17-.06-.17.11-.72.22-.56.39-1.33.39-1.61,0-.33.17-.44.39-.28.17.22.72.06,1.22-.28.5-.39.28.06-.5.94h0ZM251.69,91.59c1.22,0,2.17.94,1.94,2-.22,1.22-2.61,1.78-3.27.72-.5-.89.39-2.72,1.33-2.72ZM236.14,104.91c-.22-.06.28-.44,1.22-.89.89-.5,2.66-1.55,3.83-2.39,1.22-.78,2.89-2.55,3.78-3.89,1.67-2.66,2.11-2.72.78-.11-1.39,2.55-7.66,7.33-9.61,7.27h0ZM249.91,98.53c1.33-.44,2.28.5,1.78,1.78-.28.78-1.94,1-2.55.33-.78-.72-.39-1.78.78-2.11h0ZM250.96,102.42c.33-.17.39.06.22.5-.39,1-.78,1.17-.78.39,0-.33.22-.72.56-.89ZM247.35,104.64c.61,0,1.17.39,1.28.89.17,1-1.28,1.83-2.17,1.28-.94-.56-.28-2.17.89-2.17ZM232.7,106.19c-1.5-.39-1.39-.44.94-.89,1.61-.33,1.72-.28,1.05.44-.44.44-1.33.61-2,.44h0ZM247.47,108.74c.67-.56.61-.28-.33,1-.67,1-1.33,1.83-1.5,1.83-.5,0,.83-2.05,1.83-2.83ZM244.41,111.69c-.78.78-2.33.17-2.33-.89,0-.39.33-.89.78-1.06,1.11-.44,2.39,1.11,1.55,1.94h0ZM241.19,114.96c.22-.33.89-.89,1.55-1.22.83-.44,1-.44.78,0-.22.33-.89.89-1.55,1.22-.83.44-1,.44-.78,0ZM239.75,115.57c.11.72-.17,1-1,1s-1.11-.28-1-1c.11-.5.56-.94,1-.94s.89.44,1,.94ZM236.08,116.8c.39-.22.44-.17.22.22-.22.44,0,.67.61.67.83,0,.89.11.17.56-.44.28-1,.56-1.28.56-.61,0-.44-1.55.28-2h0ZM233.03,119.79c-.78.17-1-.06-.83-.83.11-.56.56-1,1-1,1.22,0,1,1.61-.17,1.83ZM228.76,117.46c0,.11-.5,0-1.11-.33s-1.11-.72-1.11-.89c0-.11.5,0,1.11.33s1.11.72,1.11.89ZM225.26,115.52c-.89-.72-1.17-1.17-.72-1.17.11,0,.55.44.94.94.72.89.67.94-.22.22h0ZM216.99,118.41c-1.17-1-1.33-2.94-.33-3.94,1.05-1.06,3.11-.78,3.5.44.17.61.17,1.33,0,1.67-.44.72-1.94.72-1.94,0,0-.33.22-.56.56-.56.28,0,.56-.28.56-.61,0-.78-2.33-.39-2.61.39s1.33,2.44,2.33,2.44c1.39,0,2.5-1.72,2.5-3.78,0-1.5-.44-2.44-1.78-3.83-1-1-1.44-1.83-1.06-1.83s1.44.78,2.33,1.72c3.78,4-.05,11.49-4.05,7.88h0ZM227.42,119.35c.44,0,.78.39.78.83,0,.83-1.17,1.17-1.83.5-.5-.55.11-1.33,1.05-1.33ZM231.25,119.9c.28,0,.17.28-.28.56-.44.28-1.11.55-1.39.55-.33,0-.17-.28.28-.55.44-.28,1.05-.56,1.39-.56ZM222.2,121.46c-.39.11-.67-.17-.67-.67s.39-.89.89-.89c.94,0,.78,1.22-.22,1.55h0ZM215.43,120.46c0-.39.33-.39.94-.06.55.33,1.72.72,2.61.89.83.17,1.44.44,1.28.61-.44.44-4.83-.89-4.83-1.44ZM226.2,127.12c-3.5,0-3.89-.11-5.66-1.83l-1.83-1.78,5.16-.33c3.39-.22,6.61-.89,9.33-1.83,4.94-1.72,10.83-5.55,13.6-8.99,4.72-5.77,8.11-13.44,9.05-20.49.33-2.5.67-3.28,1.22-3.16.44.11,2.67.33,4.83.5,2.22.17,4.05.56,4.05.78,0,.94-2.66,7.55-4.61,11.33-7.38,14.66-22.6,25.82-35.15,25.82v-.02ZM255.91,111.85c.28-.17.67-.06.83.22.17.28-.05.61-.5.83-.89.33-1.17-.5-.33-1.06h0ZM260.68,142.11c5.94-1.89,12.55-7.33,15.43-12.71,2.22-4,1.89-5.27-2.05-8.5-4.55-3.66-9.44-5.5-15.49-5.88-2.94-.17-4.72-.44-4.39-.78.28-.28,2.28-.28,4.94.06,2.44.33,5.83,1.06,7.5,1.72,5.77,2.16,12.1,6.99,12.1,9.27,0,1.89-3.28,6.88-6.77,10.33-3.83,3.78-11.1,8.05-12.77,7.49-.39-.17.28-.61,1.5-1h0ZM265.07,143.22c1.83,0,5.94-2.83,8.22-5.61,2.28-2.83,9.05-12.83,9.05-13.38s-11.44-8.77-14.43-10.33c-2.17-1.11-3.61-1.44-6.5-1.44-2.33-.06-3.5-.28-3.16-.56.28-.33,1.67-.5,3.16-.5,3.72.06,7.66,1.89,14.16,6.72,3.11,2.28,6.22,4.39,6.94,4.72.67.33,1.16.83,1.05,1.17-.5,1.22-9.38,13.99-10.83,15.49-.83.89-2.5,2.16-3.72,2.89-2.55,1.5-6.16,2.44-5.61,1.44.22-.33.94-.61,1.66-.61h0ZM261.46,144.56c-.61-.33-.61-.44,0-.67.39-.11.83-.06,1,.11.56.56-.28,1.06-1,.56Z"/><path class="e" d="M237.87,149.98h3.01c-.33-.22-.61-.47-1.13-.54-.67-.07-1.27.14-1.88.54h0Z"/><path class="e" d="M4.17,122.68c-.44,0-.83.22-.83.56,0,.28.39.56.83.56s.83-.28.83-.56c0-.33-.39-.56-.83-.56Z"/><path class="e" d="M31.66,148.28c0-.28.72-.78,1.67-1.17.89-.39,1.67-.94,1.67-1.22s.22-.39.5-.22.61-.06.83-.5c.39-1.06-2.94.56-7.72,3.78-.37.25-.9.7-1.35,1.04h1.9c.61-.48,1.14-.81,1.51-.93.56-.22,1-.56,1-.78h-.01Z"/><path class="e" d="M46.09,142.72c-1.11,0-4.94,1.55-3.89,1.55.17.06,1.39-.33,2.78-.72,1.78-.61,2.11-.83,1.11-.83Z"/><path class="e" d="M19.66,74.21c-.17-.67-.39-1.28-.44-1.28-.11-.11-4.77-.67-4.77-.61.06.06.78.94,1.61,1.94,1.28,1.44,1.89,1.78,2.78,1.5.94-.28,1.11-.67.83-1.55h-.01Z"/><path class="e" d="M34.99,117.74c1.72-.5,1.5-.56-1.67-.39-4.33.28-8.66,1.83-13.27,4.77-3.72,2.39-4.16,3.55-2.39,6.16,2.72,4.16,7.61,8.44,12.16,10.72,3.5,1.72,4,1.78,2.66.33-.56-.61-1.22-1.11-1.55-1.11-1.11,0-8.11-5.66-10.05-8.16-3-3.83-2.66-5.33,1.61-7.77,2.94-1.61,4.83-2.33,12.49-4.55h0Z"/><path class="e" d="M25.22,128.73c.56-.67.83-3.28.33-3.28-.28,0-.56.78-.56,1.78,0,.94.11,1.61.22,1.5h.01Z"/><path class="e" d="M217.76,146.83c1.22-1.55,3.27-4.94,4.61-7.55l2.44-4.83-4-3.83c-2.22-2.11-5.33-4.66-6.94-5.66-2.17-1.39-2.83-2.11-2.55-2.78,2.33-5.55,3.55-12.77,2.39-13.77-1.11-.89-9.72-3.5-11.6-3.5-1.55,0-1.61-.06-1.94-3.78-.17-2.05-.83-6-1.44-8.83l-1.11-5.11-2-.39c-1.05-.22-5.16-.22-9.11-.11-5.22.17-7.16.11-7.16-.39,0-1.11-4.77-10.49-5.72-11.33-1.33-1.06-3.83-.44-9.44,2.39l-4.77,2.39-2.94-3c-1.61-1.67-4.61-4.28-6.66-5.83l-3.78-2.78-2.89,2.11c-1.61,1.17-4.77,3.89-6.94,6-3.88,3.66-4.11,3.83-5.11,2.89-1.39-1.22-9.44-4.77-10.94-4.77-.61,0-1.55.44-2.05.94-1,1.17-5.39,10.05-5.39,10.99,0,.5-2,.56-7.16.39-3.94-.11-8.05-.11-9.11.11l-2,.39-1.11,5.11c-.61,2.83-1.28,6.77-1.44,8.83-.33,3.72-.39,3.78-1.94,3.78-1.89,0-10.49,2.61-11.6,3.5-1.17,1,.06,8.22,2.39,13.77.28.67-.5,1.44-3.11,3.16-1.94,1.28-5.05,3.89-6.94,5.77l-3.39,3.5,2.22,4.39c1.22,2.44,3.22,5.72,4.39,7.33s2.17,3.05,2.17,3.22c0,.03-.21.32-.28.43h3.78c-2.01-1.49-4.67-4.14-4.28-4.48.17-.17.61.11,1,.61.44.67,1.11.83,2,.61,1.11-.28,1.22-.17.94.89-.39,1.44,1.44,2.72,2.61,1.78.56-.44.89-.44,1.33.11.14.18.15.32.2.48h5.58c-2.25-.3-4.48-.84-6.29-1.82-2.89-1.5-6.38-5.89-7.49-9.38-.94-2.83-.89-3.55.39-5.05.61-.72,1.33-1.61,1.5-1.89.44-.72,2.83-2.33,5.89-4.05,3.28-1.89,8.61-1.83,12.88.11,3.11,1.44,5.11,1.94,3.55.89-.72-.5-.72-.67.17-1.33.94-.72.89-.83-.56-1.89-2-1.39-6.38-2.89-9.72-3.28-2.44-.28-2.66-.44-3.72-2.94-.61-1.44-1.28-3.66-1.5-4.89-.44-2.66-.06-2.94,5.94-4l3.44-.61,1.44,1.83c2.28,2.89,6.27,6.44,8.11,7.16.89.39,1.78.78,1.89.83.11.11-.33.83-.94,1.72-1.89,2.72-3.44,6.44-3.44,8.33,0,1-.17,1.83-.33,1.83s-1.11-.61-2.05-1.33c-2-1.5-6.94-3.11-9.49-3.11-4.22,0-12.55,5.94-12.55,8.94,0,4.72,4.83,11.05,9.6,12.44,3.28,1,6.5,1.05,9.44.22,1.22-.33,2.22-.5,2.28-.39.18.23.02.93-.24,1.65h1.51c.46-2.36,1.17-5.24,1.73-6.76.72-1.94,1.22-5.16,1.44-8.88.39-7.44,1.06-9.77,3.55-12.38,1.83-1.89,9.55-7.61,10.33-7.61.11,0,2.61-2.33,5.44-5.22,6.83-6.88,7.61-7.22,14.71-7.16,3.11.06,6.66.39,7.88.72,1.67.44,2.89.44,4.61,0,1.28-.39,4.83-.67,7.94-.72,5.39-.11,5.77-.06,8.11,1.5,1.94,1.28,7.55,6.61,10.33,9.83.22.28,2.05,1.55,4.05,2.83,5.33,3.33,8.27,5.94,9.44,8.27,1.28,2.5,2.33,8.61,2.17,12.71-.11,2,.28,4.11,1.05,6.22.52,1.47,1.24,4.23,1.77,6.65h1.69c-.26-.72-.42-1.42-.24-1.65.06-.11,1.06.06,2.28.39,2.94.83,6.16.78,9.44-.22,4.77-1.39,9.61-7.72,9.61-12.44,0-3-8.33-8.94-12.55-8.94-2.61,0-7.49,1.61-9.55,3.17-2.11,1.61-2.5,1.44-2.61-1.06-.06-1.94-1.78-6.05-3.28-7.94-1.17-1.5-1.11-1.61.89-2.39,1.94-.72,5.88-4.16,8.27-7.22l1.44-1.83,3.44.61c5.88,1.05,6.33,1.33,5.94,3.83-.17,1.11-.83,3.33-1.5,4.89-1.11,2.72-1.22,2.83-3.72,3.11-3.33.39-7.72,1.89-9.72,3.28-1.44,1.06-1.5,1.17-.56,1.89.89.67.89.83.17,1.33-1.55,1.06.44.56,3.55-.89,4.27-1.94,9.6-2,12.88-.11,3.05,1.72,5.44,3.33,5.89,4.05.17.28.89,1.17,1.5,1.89,1.33,1.55,1.39,1.83.44,4.77-1.11,3.72-4.55,8.11-7.55,9.66-1.81.97-4.03,1.52-6.28,1.82h5.55c.06-.14.04-.26.18-.43.5-.61.83-.61,1.39-.17,1.16.94,3-.33,2.61-1.78-.28-1.06-.17-1.17,1.05-.89,1,.28,1.55.11,1.78-.44.17-.44.61-.83,1-.83.86,0-2.16,3.05-4.31,4.54h3.61l-.31-.37,2.11-2.78h0ZM79.13,126.01c.17-.33.61-.56.89-.56.33,0,.39.22.22.56-.17.28-.61.56-.89.56-.33,0-.39-.28-.22-.56ZM73.46,142.11c.39.44,1.17.83,1.72.83,1.39,0,1.83,1.28.61,1.78-.67.22-1.33-.11-2-1-1.11-1.44-1.44-2.94-.33-1.61ZM73.63,140.39c-.44.39-1.06.56-1.39.39-.89-.56-.72-2,.28-2.39,1.22-.44,2.05,1,1.11,2ZM71.46,136.78c-.83.5-1.17.39-1.78-.44-1.05-1.39-.11-3.22,1.55-3,1.55.22,1.67,2.55.22,3.44h0ZM75.52,131.29c0,1-.94,1.55-1.94,1.17-1.05-.39-1.05-1.11,0-2,.89-.72,1.94-.33,1.94.83ZM74.96,129.12c0-.17.22-.44.56-.61.28-.17.56-.06.56.22,0,.33-.28.61-.56.61-.33,0-.56-.11-.56-.22ZM78.85,127.4c.89,1.05-.06,2.28-1.33,1.78-1.11-.44-1.11-1.17-.11-2,.56-.5.89-.44,1.44.22ZM98.28,126.84c0,.44-.39.83-.83.83s-.83-.39-.83-.83.39-.83.83-.83.83.39.83.83ZM95.23,126.01c-.22.33-.61.44-.89.28-.67-.44-.67-1.94,0-1.94.78,0,1.28,1,.89,1.67h0ZM91.73,125.57c-.33.33-.83.39-1.17.22-.89-.56-.72-2,.17-2,1.11,0,1.72,1.06,1,1.78ZM87.73,124.07c.39.5.33.89-.22,1.33-.56.5-.89.44-1.39-.17-.78-.89-2.83-.56-2.83.56,0,.89-.94,1.5-1.67,1.06-.72-.44-.72-1.78-.06-2.22,1.39-.83,5.61-1.22,6.16-.56h0ZM99.89,135.95c-.06,1.44.06,2.94.28,3.33.28.39.06,1.11-.39,1.61-.44.5-1.11,2-1.44,3.28-.56,2.05-.89,2.44-2.72,2.94-4.72,1.28-10.88.39-13.6-2.11-2.11-1.89-4.61-6.55-4.77-8.88-.06-.33.94-1.67,2.22-2.94,5.44-5.44,12.16-5.77,18.88-1,1.5,1.05,1.67,1.44,1.55,3.78h-.01ZM212.65,133.23c2.05,2.05,2.28,2.5,1.89,4.05-.89,4.16-4.44,8.38-8.27,9.83-2.11.83-7.55.78-10.05,0-1.5-.5-2-1.05-2.33-2.39-.17-1-.28-2-.22-2.22.06-.28-.11-.33-.44-.11-.72.44-1.72-1.94-1.28-3.05.17-.44.28-2,.22-3.39-.11-2.33.11-2.72,1.55-3.78,6.72-4.77,13.44-4.44,18.93,1.05h0ZM198.66,101.14c.28,4.33-1.61,9.49-3.11,8.55-1-.61-.78-1.5.39-1.83,1.28-.33,1.89-2.22.83-2.61-1.11-.44-.94-1.5.28-1.83,1.44-.39,1.39-2.78-.06-3.11-1.39-.39-1-1.78.44-1.78.89,0,1.05.44,1.22,2.61h0ZM197.89,95.2c.22,1.17.28,2.22.11,2.39s-.33-.28-.33-.94c0-.72-.22-1.05-.56-.89-.78.44-2.33-.78-2.05-1.61.11-.33.72-.67,1.33-.78.94-.11,1.22.22,1.5,1.83ZM196.5,90.81c-.67.83-2.28,1.05-2.94.39-.89-.89-.05-2.66,1.39-2.83,1.67-.22,2.55,1.22,1.55,2.44ZM191.28,89.09c0,1.44-1.83,1.78-2.39.44-.5-1.28-1.94-1.28-2.44-.06-.5,1.22-1.89,1.28-2.33.17-.44-1.28-2.55-1.05-2.55.28,0,.72-.39,1.11-1.11,1.11s-1.11-.39-1.11-1.06c0-.83.61-1.17,3.05-1.61,1.72-.28,4.38-.5,6-.44,2.5.06,2.89.22,2.89,1.17h0ZM177.12,92.37c0,.89-1.16,1.22-1.83.5-.72-.67-.39-1.17,1.33-2.39.89-.67,1.83-1.06,2.05-.83.22.22-.06.67-.61,1.06-.5.39-.94,1.17-.94,1.67h0ZM164.96,78.32c5.83-2.94,7.22-2.94,9.33-.06.83,1.17,2.16,3.72,2.83,5.61,1.28,3.33,1.28,3.44.28,4.16-1.5,1.11-2.5.94-2.5-.33,0-.61-.72-2.78-1.61-4.72-1.17-2.5-1.94-3.61-2.66-3.61-.56,0-2.83,1-5.05,2.22s-4.16,2.22-4.28,2.22c-.22,0-.67-1.5-.78-2.61,0-.33,2-1.67,4.44-2.89h0ZM159.91,85.43c0,1.39-1,2.05-1.83,1.17-.5-.5-.44-.78.22-1.28,1.11-.89.11-3-1.33-2.72-.67.11-.94-.17-.94-.94,0-.67.28-1.17.67-1.17.33,0,.22-.44-.33-1.05-.61-.67-1.39-.89-2.28-.72-1,.17-1.39,0-1.39-.67,0-.5.39-1.05.89-1.28,1.61-.61,6.33,5.89,6.33,8.66h0ZM151.14,75.6c-.83.83-2.44.06-2.22-1.05.11-.56.61-1.06,1.17-1.17,1.11-.22,1.89,1.39,1.05,2.22ZM144.92,70.82c1.05-1.05,1.11-1.05,2.16-.11.89.78,1,1.28.56,2.05-.67,1.33-2.5,1.39-3.22.06-.39-.72-.28-1.22.5-2ZM140.59,74.54c.11-.56.61-1.06,1.16-1.17,1.11-.22,1.89,1.39,1.06,2.22s-2.44.06-2.22-1.05ZM146.03,75.27l2.5,1.28c7.05,3.5,10.77,11.33,8.83,18.71-.78,3-1,5.22-.39,3.66.28-.72,1.83-.94,1.83-.22,0,.94-1.39,1.78-2.89,1.78-.83,0-1.55-.06-1.55-.17s.5-1.17,1.05-2.39c1.44-3,1.94-7.22,1.22-9.99-1.33-4.94-7-10.77-10.49-10.77-3.72,0-9.33,5.55-10.66,10.49-.83,3.05-.33,7.55,1.17,10.38.56,1.17,1.06,2.22,1.06,2.28,0,.5-3.22.06-3.78-.5-.89-.89-.83-1.55.17-1.55.44,0,.83.33.89.67,0,.44.11.5.28.11.17-.33-.11-2-.56-3.72-1.94-7.44,1.72-15.21,8.83-18.77l2.5-1.28h0ZM159.63,88.81c.44,0,.83.5.83,1.11s-.39,1.11-.83,1.11-.83-.5-.83-1.11.39-1.11.83-1.11ZM159.63,92.7c.44,0,.83.33.83.78,0,.94-.78,1.55-1.33,1.05-.67-.67-.33-1.83.5-1.83ZM158.8,96.03c1.17,0,1.5.83.56,1.39-.67.39-1.67-.11-1.67-.89,0-.28.5-.5,1.11-.5ZM151.03,100.53c-2.89.17-3.05.22-3.83.94-.39.39-1.11.61-1.55.44-.44-.17-1.05-.33-1.33-.33-.33,0-.44-.17-.33-.44.17-.22-.78-.44-2-.56-2.83-.17-3.05-.39-4.33-4.11-1.22-3.5-1.33-7.55-.28-10.1s4.05-5.77,6.55-7.05c1.41-.71,2.83-.71,4.27,0,2.83,1.5,6.05,5.27,6.77,8.05.78,2.94.33,7.16-1.16,10.44-1,2.28-1.39,2.67-2.78,2.72h0ZM133.82,97.42c-.67.39-1.67-.11-1.67-.89,0-.28.5-.5,1.11-.5,1.17,0,1.5.83.56,1.39ZM131.93,94.53c-.67-.67-.33-1.83.5-1.83.44,0,.83.33.83.78,0,.94-.78,1.55-1.33,1.05ZM132.43,91.03c-.44,0-.83-.5-.83-1.11s.39-1.11.83-1.11.83.5.83,1.11-.39,1.11-.83,1.11ZM136.37,77.65c1.39-1.28,3-1.11,3,.39,0,.67-.39.83-1.39.67-.89-.17-1.67.06-2.28.72-.56.61-.67,1.05-.33,1.05.39,0,.67.5.67,1.17,0,.78-.28,1.05-1,.94-1.33-.28-2.39,1.83-1.28,2.66.94.72.28,2.11-.78,1.67-.44-.17-.89.17-1.06.67-.11.5-.11-.06.06-1.28.17-1.22.94-3.39,1.72-4.83.72-1.44,1.94-3.16,2.66-3.83h0ZM114.99,83.7c.61-1.61,1.83-4,2.61-5.33,1.44-2.28,1.61-2.39,3.66-2.11,2.5.28,10.33,4,10.33,4.83,0,.33-.28,1.05-.55,1.61-.56,1-.78.94-4.61-1.11-2.16-1.22-4.44-2.22-5-2.22-.72,0-1.5,1.11-2.66,3.61-.89,1.94-1.61,3.94-1.61,4.39,0,1.22-.94,1.55-2.22.89-1.39-.72-1.39-.94.06-4.55h0ZM112.72,89.98c0,.67-.39,1.06-1.11,1.06s-1.11-.39-1.11-1.11c0-1.39-1.94-1.5-2.67-.17-.33.56-.89.78-1.44.56-.89-.39-1.22-1.78-.5-2.22.28-.17,1.89,0,3.61.28,2.61.44,3.22.78,3.22,1.61h0ZM115.05,90.42c2,1.22,2.39,2.44.83,2.72-.61.11-.94-.17-.94-.89,0-.61-.39-1.22-.83-1.44-.44-.17-.83-.56-.83-.94,0-.33.78-.11,1.78.56h0ZM102.89,87.87c1.17-.06,2.05.11,2.05.44s-.39.5-.83.28c-.5-.17-.83,0-.83.5,0,.39-.28.94-.56,1.11-1,.61-2.33-.22-2.11-1.22.11-.72.78-1.05,2.28-1.11ZM95.78,91.03c-.94-.78-1-1.11-.33-2.11.22-.44,1.06-.67,1.78-.56,1,.11,1.33.5,1.33,1.55,0,1.55-1.5,2.16-2.78,1.11h0ZM93.9,97.36c0-.33.11-1.44.28-2.39.39-1.72,1.94-2.39,2.72-1.17.5.83-.83,2.33-1.72,2-.39-.17-.83.22-.94.94-.11.67-.28.94-.33.61h0ZM93.45,101.86c.11-2.89.28-3.33,1.17-3.33,1.5,0,1.83,1.39.39,1.78-1.33.33-1.67,2.94-.39,2.94s1.72,1.22.67,1.94c-1,.78-.67,2.5.5,2.5,1.06,0,1.61,1.11.94,1.78-.83.83-2.22-.39-2.83-2.55-.28-.94-.5-3.22-.44-5.05h0ZM85.73,110.24l-3.61.94.39,1.72c.17.94.83,3.16,1.39,4.89,1.33,3.94,1.33,4.11-.06,4.5-1.83.44-3.61-3.28-4.39-9.27-.5-3.44-.17-3.89,3.89-5.27,1.67-.61,4.33-1.28,5.89-1.44,2.66-.39,2.78-.33,3.05,1.06.33,1.72.11,2-1.61,2-.72,0-2.94.39-4.94.89v-.02ZM97.17,112.46c0-.44.22-.94.44-1.11.72-.44,1.94.61,1.55,1.28-.56.89-2,.78-2-.17h0ZM99.78,115.69c-.5-.56.11-1.33,1.06-1.33.44,0,.78.39.78.83,0,.83-1.17,1.17-1.83.5h0ZM102.28,117.02c.17-.39.56-.72.89-.72,1,0,.83,1.11-.22,1.28-.56.17-.83-.06-.67-.56ZM118.49,109.13c-1,1.22-1.89,2.44-1.89,2.72,0,.33-1.5,1.28-3.39,2.11-4.16,1.89-5.77,1.55-9.83-2.11-4.39-3.94-5.55-9.72-3.16-15.43.72-1.78,1.11-2.05,3.33-2.39,8.05-1.17,13.71,2.5,16.1,10.55.72,2.39.72,2.44-1.17,4.55h.01ZM121.71,106.8l-.39-1.89c-1.11-5.11-5.27-10.27-9.49-11.72-2.72-.94-8.94-.94-10.66,0-3.5,1.89-4.61,10.33-2,15.49,1.61,3.22,5,6.44,7.77,7.33,1.06.39,1.89.83,1.89,1.05,0,.61-3,2.17-3.78,1.89-1.05-.39-.78-1.17.56-1.39,1.06-.17.94-.33-1.05-1.67-2.67-1.78-5.5-5.11-6.83-8.11-1.22-2.72-1.11-8.94.22-12.38.56-1.44,1.55-2.89,2.22-3.22,1.44-.78,9.16-1.17,9.55-.5.17.22.89.44,1.61.44,2.78,0,7.38,4.16,9.77,8.83.89,1.72,1.55,2.66,1.61,2.11,0-1.11,1.67-1.28,1.67-.17,0,.44-.61,1.5-1.33,2.33l-1.33,1.55v.03ZM118.99,93.92c.56-.11.94.17.94.67,0,1-.89,1.61-1.72,1.17-.78-.5-.33-1.61.78-1.83h0ZM121.32,96.97c.28-.06.61.33.72.83.11.61-.17,1-.72,1-.94,0-1-1.67,0-1.83ZM123.27,101.25c-.5.5-1.67,0-1.67-.78,0-.28.28-.67.61-.89.78-.44,1.72,1,1.05,1.67h0ZM126.54,102.47c-1,1.22-1.44.94-1.89-1.33-.39-2.11-3.94-8.11-5.83-9.83-1.39-1.22-1.39-1.78-.05-5.33.61-1.55,1.5-3.39,1.94-4.11,1.06-1.61,2.06-1.39,6.83,1.55l2.94,1.72v4.27c0,3.66.61,6.94,1.89,9.99.28.67-.28,1-2.39,1.55-1.5.39-3.05,1.06-3.44,1.5v.02ZM165.52,102.47c-.39-.44-1.94-1.11-3.44-1.5-2.11-.56-2.66-.89-2.39-1.55.17-.5.72-2,1.11-3.33.44-1.33.78-4.39.78-6.66v-4.27l2.89-1.72c1.61-1,3.61-2.05,4.5-2.33,1.39-.56,1.61-.44,2.61,1.22.61.94,1.55,3.05,2.06,4.66l.89,2.89-1.61,1.83c-2.66,3.05-5.11,7.27-5.5,9.44-.44,2.28-.89,2.55-1.89,1.33h0ZM172.9,93.81c.44,0,1,.28,1.22.61.44.78-.61,1.83-1.39,1.39-.89-.56-.72-2,.17-2ZM170.74,96.97c.28-.06.61.33.72.83.11.61-.17,1-.72,1-.94,0-1-1.67,0-1.83ZM169.35,99.36c.28,0,.67.28.89.61.44.78-.61,1.83-1.39,1.39-.61-.39-.22-2,.5-2ZM179.9,114.57c-1.06-.72-2.33-1.33-2.89-1.33-.5,0-1.28-.56-1.61-1.28-.39-.67-1.33-2.05-2.22-3.11-1.44-1.78-1.5-1.94-.78-4.27.39-1.33,1.39-3.55,2.16-4.94,2.61-4.39,7.88-6.5,13.94-5.61,2.22.33,2.61.61,3.39,2.44.5,1.11.89,3.66.94,5.66.06,5.77-2.39,9.38-8.44,12.44l-2.55,1.33s-1.94-1.33-1.94-1.33ZM189.45,116.46c.83.83.22,1.44-1,1-.72-.28-.83-.5-.33-1s.83-.5,1.33,0ZM191.33,115.91c-.56.11-.89-.17-.89-.72s.39-.83.94-.72c1.22.22,1.11,1.22-.06,1.44h0ZM194.72,111.91c.39,1.05-.11,1.55-1.22,1.17-1.06-.44-1.06-1.28,0-1.72.5-.17,1,.06,1.22.56h0ZM186.56,116.68c-.93.63-.98.94-.17.94,1.39.06,1.72.89.55,1.33-.72.28-3.72-1.28-3.72-1.89,0-.22.83-.67,1.78-1.05,7.77-3.11,11.6-12.71,8.05-19.99-1.06-2.11-1.61-2.61-3.72-3.22-2.83-.83-6.88-.5-9.94.78-3.89,1.61-7.61,6.5-8.66,11.33l-.39,1.89-1.33-1.55c-1.5-1.72-1.72-3.11-.5-3.11.44,0,.83.44.83.94.05.56.72-.39,1.61-2.11,2.39-4.66,7-8.83,9.77-8.83.72,0,1.44-.22,1.61-.44.39-.67,8.11-.28,9.55.5,3,1.61,4.44,11.16,2.33,15.94-1.11,2.44-5,6.83-7.66,8.55h0ZM206.88,121.07c1.05-2.39,2.39-6.61,2.55-8.11.17-1.44-.06-1.72-2.05-2.39-1.22-.39-3.55-.89-5.16-1.06-1.56-.17-2.89-.5-2.89-.67s.17-.94.39-1.67c.28-1.22.5-1.28,3.05-.94,1.44.22,4.22.94,6.16,1.61,2.29.81,3.5,2.02,3.61,3.61.17,2.5-1.11,7.88-2.39,9.88-.94,1.5-3.94,1.22-3.27-.28v.02ZM212.77,125.9c.39.39.44.67.11.67-.78,0-1.44-.67-1.06-1.05.17-.11.61.06.94.39h0ZM197.16,124.62c.83-.56,1.28.06.83,1.11-.17.5-.55.72-.89.56-.72-.44-.72-1.22.06-1.67ZM201.16,123.9c.55-.11.94.17.94.67,0,1-.89,1.61-1.72,1.17-.78-.5-.33-1.61.78-1.83h0ZM195.44,126.84c0,.44-.39.83-.83.83s-.83-.39-.83-.83.39-.83.83-.83.83.39.83.83ZM208.93,126.07c-.33-1.33-2.16-1.83-3-.83-.5.61-.83.67-1.39.17-.56-.44-.61-.83-.22-1.33s1.28-.56,3.16-.22c3,.56,3.78,1.17,3.33,2.39-.5,1.22-1.55,1.11-1.89-.17h0ZM212.65,128.23c0-.33.39-.72.89-.94,1.17-.44,2.33.72,1.5,1.55-.72.72-2.39.28-2.39-.61ZM215.99,128.79c0-.33.11-.56.22-.56.17,0,.44.22.61.56.17.28.06.56-.22.56-.33,0-.61-.28-.61-.56ZM217.15,130.12c.94-.56,2.55,1.28,1.78,2.05-.39.39-1.05.5-1.5.33-1-.39-1.17-1.83-.28-2.39h0ZM219.98,136.45c-1-1-.56-2.89.67-3.11,1.5-.33,2.67,1.39,1.94,2.72-.61,1.22-1.67,1.33-2.61.39ZM218.54,140.5c-.94-.78-.56-2.28.55-2.28s1.67,1.55.89,2.33c-.44.44-.83.44-1.44-.06h0ZM216.87,142.95c.55,0,1.33-.39,1.72-.83,1.11-1.33.78.17-.33,1.61-.67.89-1.33,1.22-2,1-1.22-.5-.78-1.78.61-1.78Z"/><path class="e" d="M87.62,118.24c0-.89-.22-1.67-.5-1.67-.33,0-.5-.67-.39-1.5.11-1.17.56-1.61,1.83-1.83.94-.22,2.22-.67,2.78-1,.74-.41.74-.63,0-.67-1.78,0-4.89,1-5.39,1.78-.56.94-.5,2,.28,4.16.94,2.44,1.33,2.67,1.39.72h0Z"/><path class="e" d="M100.22,122.68c-1.5,0-1.72.5-.61,1.44.56.5.83.39,1.33-.39.61-.94.5-1.06-.72-1.06h0Z"/><path class="e" d="M101.61,120.07c-.61-.06-1.11-.06-1.11,0s.28.56.61,1.17c.5.83.72.89,1.11.28.72-1.17.61-1.39-.61-1.44h0Z"/><path class="e" d="M79.4,139.17c0,.39.28.83.61,1,.28.22.78,1,1.11,1.78.28.72.72,1.17,1.06,1,.28-.17.56-.06.56.28,0,.56,3.16,2.78,4,2.78,1.11,0,.22-1.17-1.5-2-1.05-.5-1.94-1.17-1.94-1.44,0-.33-.39-.39-.89-.22-.67.28-.78.06-.5-.83.28-.78.17-1.06-.17-.83-.33.17-1-.22-1.44-.89-.5-.67-.89-.94-.89-.61v-.02Z"/><path class="e" d="M79.96,134.34c-.33.61-.44,1.11-.33,1.11.17,0,.56-.5.89-1.11s.44-1.11.33-1.11c-.17,0-.56.5-.89,1.11Z"/><path class="e" d="M82.29,132.45c-.39.44-.44.78-.17.78.56,0,1.39-1.05,1.11-1.39-.11-.06-.56.17-.94.61Z"/><path class="e" d="M84.96,131.56c0-.33-.28-.56-.56-.56-.33,0-.56.22-.56.56,0,.28.22.56.56.56.28,0,.56-.28.56-.56Z"/><path class="e" d="M85.79,138.78c-.17-.33-.56-.56-.89-.56-.28,0-.5.22-.5.56,0,.28.39.56.89.56.44,0,.67-.28.5-.56Z"/><path class="e" d="M85.68,136.56c.72,0,.94-.17.61-.44-.33-.22-.72-.78-.89-1.22-.17-.56-.33-.44-.56.44-.28,1-.11,1.22.83,1.22h0Z"/><path class="e" d="M88.18,130.18c-2.78.39-3.83,1.61-1.17,1.33.89-.11,1.89-.39,2.22-.67.44-.33,1.39-.22,2.5.33,1,.44,2.55.94,3.5,1.11,1.11.22.67-.11-1.33-1.06-2.5-1.17-3.55-1.33-5.72-1.05h0Z"/><path class="e" d="M86.62,141c.28,0,.56-.28.56-.61,0-.28-.28-.39-.56-.22-.33.17-.56.44-.56.61,0,.11.22.22.56.22Z"/><path class="e" d="M90.23,146.55c1.55,0,2.44-.22,2.22-.56-.17-.33-1.17-.56-2.22-.56s-2.05.22-2.22.56c-.22.33.67.56,2.22.56Z"/><path class="e" d="M92.06,138.45c-.94.67-.94.78-.17,1.11.5.17,2.33.33,4.05.28h3.16l-3-1.11c-2.5-.89-3.11-.94-4.05-.28h0Z"/><path class="e" d="M91.79,142.33c-.22.17.11.33.72.28.61,0,.78-.17.33-.33-.39-.17-.89-.11-1.06.06h0Z"/><path class="e" d="M95.06,142.28c.5.17,1.33-.06,1.94-.44.78-.61.83-.78.17-.78-.44,0-1.33.22-1.89.44-.94.33-.94.44-.22.78Z"/><path class="e" d="M97.45,137.12c-.5-.44-.83-.44-.83-.11s.28.78.61.94c.94.61,1.17-.06.22-.83Z"/><path class="e" d="M188.78,135.17c-.61-9.61-.94-10.6-5.11-13.99-1.94-1.5-4.77-3.5-6.27-4.33-1.55-.89-4.66-3.61-7-6.11-2.33-2.44-5.27-5.22-6.55-6.05-2.28-1.61-2.39-1.61-8.27-1.28-3.28.17-6.77.61-7.77.89-1.17.33-2.39.33-3.61,0-.94-.28-4.44-.72-7.66-.89-7.22-.39-7.77-.17-14.49,7-2.55,2.72-5.61,5.44-6.88,6.05-1.22.61-4.05,2.55-6.22,4.33-4.72,3.72-5.05,4.55-5.5,13.27-.22,4.72-.67,7.22-1.94,10.99-.49,1.46-.94,3.23-1.3,4.92h1.28c.07-.28.11-.54.19-.82.61-2.5,1.39-5,1.78-5.66.33-.61.78-4.11,1-7.83.56-9.27,1-10.6,4.39-13.27,1.5-1.22,4.28-3.16,6.16-4.27,1.83-1.11,5.33-4.16,7.77-6.77,6.38-6.77,7.22-7.22,13.32-6.83,2.66.22,6.05.61,7.44.94,1.67.39,3.33.39,5,0,1.39-.33,4.77-.72,7.44-.94,6.11-.39,6.94.06,13.32,6.83,2.44,2.61,5.94,5.66,7.77,6.77,1.89,1.11,4.66,3.05,6.16,4.27,3.39,2.66,3.83,4,4.39,13.27.22,3.72.67,7.22,1,7.83.49.88,1.3,3.74,1.96,6.48h1.28c-.33-1.44-.74-2.9-1.13-4.04-1.17-3.11-1.61-5.72-1.94-10.77h0Z"/><path class="e" d="M106.61,141.89c0-2.11,5.72-5.27,10.22-5.72,1.61-.11,4.16.11,5.88.61,1.67.44,3.11.72,3.22.61.11-.11-1.66-1.11-3.94-2.22-5.22-2.55-9.94-3.17-11.99-1.55-1.44,1.17-1.33,3.16.17,2.61.44-.17.67-.67.56-1.05-.44-1.11.67-1.5,1.5-.5.56.67.56,1-.11,1.61-1.44,1.39-3.55,1.28-4.39-.33-.5-.89-.44-1.33.22-2.11.83-.89.83-1.17.06-2.61-.44-.89-.83-2.39-.83-3.28-.06-1.44-.11-1.55-.61-.61-.33.56-.44,1.94-.28,3.11.17,1.22.11,2.28-.22,2.5-.28.17-.56,2.05-.56,4.11,0,2.33-.44,5-1.11,7.05-.49,1.39-1.16,3.73-1.72,5.87h2.83c.04-.18.23-.23,0-.65-1.44-2.67,2.05-4.55,4.16-2.22.94,1.06,1,1.22.11,2.05-.78.78-1.06.83-1.61.22-.56-.61-.56-.78-.06-1,1.11-.39.83-1.28-.33-1.28-1.78,0-1.83.94-.22,2.78.03.04.09.06.13.09h7.98c-2.08-.8-3.99-2.08-5.88-4.04-1.72-1.78-3.17-3.61-3.17-4.05h0Z"/><path class="e" d="M127.76,113.8c-2.05,0-2.72.94-1.5,2.11.83.83.89.83.89-.06,0-.5.39-.94.83-.94,1.11,0,1.05,2-.06,2.44s-3.55-1.06-3.55-2.11c0-1.67.72-2.55,2-2.55,1,0,1.33-.28,1.33-1.28,0-.67.5-2.05,1.11-3.05s1.11-1.94,1.11-2.17c0-.17-2.61,2.28-5.83,5.44-6.33,6.33-7.5,7.38-8.61,7.61-.39.11-1.39.89-2.22,1.78-.89.94-1.89,1.67-2.33,1.67-.39,0-1.5.61-2.39,1.39l-1.67,1.39,2.05-.83c1.17-.44,2.78-.83,3.61-.83,1.11,0,1.72-.39,2.11-1.22,1.11-2.55,4.16-1.61,4.16,1.22,0,1.78-1.28,2.55-2.22,1.33-.67-.72-.39-1,.72-.83.28.06.39-.33.28-.89s-.55-1-1-1c-1.11,0-1.39,2.72-.5,4.77.78,2,5.61,6.44,8.88,8.22l2.44,1.33-2.61-2.72c-1.39-1.5-3.11-3.78-3.77-5.05-1.44-2.83-2-8.11-1.17-10.38.61-1.5.78-1.55,3.27-1.28,4.89.67,6.83,1.5,9.77,4.44,1.61,1.61,3.33,3.5,3.83,4.27.89,1.33.89,1.28.17-.89-2.11-6.16-6.22-11.33-9.16-11.33h.03Z"/><path class="e" d="M112,126.01c.94,0,1.94-.28,2.16-.61.56-.94-4.72-.28-5.55.67-.39.44-.61,1.28-.5,1.89.39,2.05,1.39,4.16,1.94,4.16.33,0,.39-.44.17-1-1.83-4.5-1.67-5.11,1.78-5.11Z"/><path class="e" d="M117.1,130.56c-1.06-1.17-2.17-2.55-2.44-3.05-.44-.72-1-.89-2.66-.61-2.33.39-2.28.39-1.22,2.83.67,1.61,1,1.83,3,1.83,1.22,0,2.89.28,3.72.56,1.5.61,1.5.56-.39-1.55h0ZM112.16,129.07c0-.44.33-.83.78-.83s.89.39,1.11.83c.22.56-.06.83-.78.83-.61,0-1.11-.39-1.11-.83Z"/><path class="e" d="M180.84,143.5c.83-1.55.83-1.67-.94-3.11-4-3.39-9.38-3.44-17.99-.28l-5.05,1.89,2.22-1.72c3.89-3.05,8.44-8.05,9.66-10.55,1.11-2.33,1.55-6.55.83-8.38-.5-1.22-4.33-1.17-7.16.17-3.66,1.67-6.55,4.94-10.11,11.27-1.39,2.55-1.83,3.05-1.61,1.83,1-5.22,1.55-11.49,1.22-13.71-.39-2.78-2.66-6.55-4.66-7.99-1.11-.78-1.33-.78-2.44,0-2,1.44-4.28,5.22-4.66,7.99-.33,2.22.22,8.5,1.22,13.71.22,1.22-.22.72-1.61-1.83-3.55-6.33-6.44-9.6-10.1-11.27-2.83-1.33-6.66-1.39-7.16-.17-.72,1.83-.28,6.05.83,8.38,1.22,2.5,5.77,7.49,9.66,10.55l2.22,1.72-5.11-1.89c-8.5-3.16-13.44-3.11-17.82.17-2.05,1.55-2.11,1.61-.72,3.78,2.41,3.9,5.5,5.4,12,5.92h16.7c.11-.16.23-.31.23-.59,0-.89-.33-.94-2.66-.72-3.61.33-6.77-1-6.77-2.83,0-.78.39-1.55.89-1.72,1.55-.61,3.78-.33,6.27.83,3.39,1.5,4.11.33,1.11-1.83-2.78-2-4.33-5-3.28-6.27.39-.44,1.05-.83,1.5-.83,1.33,0,4.61,3.61,4.94,5.55.28,1.17.67,1.67,1.28,1.55.56-.11.83-.67.72-1.28-.78-4.83-.72-7.33.17-8.22.5-.5,1.11-.94,1.39-.94s.89.44,1.39.94c.89.89.94,3.39.17,8.22-.11.61.17,1.17.72,1.28.61.11,1-.39,1.28-1.55.33-1.94,3.61-5.55,4.94-5.55.44,0,1.11.39,1.5.83,1.05,1.28-.5,4.27-3.28,6.27-3,2.17-2.28,3.33,1.11,1.83,4-1.83,7.16-1.44,7.16.89,0,1.83-3.16,3.16-6.77,2.83-2.33-.22-2.66-.17-2.66.72,0,.28.12.43.23.59h16.43c6.91-.57,10.45-2.32,12.6-6.48h-.03ZM130.09,145.44c-.17.61-.5,1.11-.78,1.11s-.5-.5-.5-1.11.33-1.11.78-1.11c.5,0,.67.39.5,1.11ZM125.21,144.5c0,1.22-.11,1.22-2.11.72-1.11-.33-2.05-.89-2.05-1.28,0-.44.72-.72,2.05-.72,1.83,0,2.11.17,2.11,1.28ZM125.71,142.67c-4.66-.83-5.66-.61-5.55,1.22.06,1.39,1.5,2,7.83,3.28l3.33.67-1.94.83c-2.17.89-6.5.61-11.05-.78-2-.56-3.33-1.44-4.72-3.11-1.11-1.22-1.83-2.5-1.67-2.78.17-.22,1.55-1.11,3.11-1.89,3-1.5,4.17-1.55,10.88-.11,2.06.44,2.72.78,2.22,1.17-.5.33-.33.39.55.22.67-.17,1.11-.11.94.17-.17.22.28.61,1,.83,2.5.78-.78,1-4.94.28h.01ZM132.48,137.17c-.94-.89-1.39-1.06-1.55-.56-.33,1-6.44-6.55-7.05-8.66-.28-.89-.56-2.72-.56-4.05-.06-2,.11-2.33,1.11-2.33,3.5,0,6.11,1.28,9.16,4.55,1.67,1.89,2.94,3.66,2.78,4.11-.17.39,0,.89.33,1.11.39.28.44.11.17-.33s-.22-.61.17-.33c.33.22.44.78.28,1.28-.22.5-.11.78.17.61.28-.22.56.28.56,1,.06.72,0,1.33-.17,1.33s-1.94-1.78-4-4c-3.61-3.83-3.83-4-4.77-3.05-1.22,1.28-.83,2.28,2.78,6.66,2.66,3.22,3.05,5,.61,2.66h-.02ZM130.65,131.56c-1.39-2.16-1.5-2.55-.83-3,.28-.17,1.22.44,2.05,1.33.89.94,1.33,1.67,1,1.67-.39,0-.72.44-.83.94-.11.72-.5.5-1.39-.94ZM134.37,135.78c0-.44.39-.89.83-1.05,1.22-.5,1.44.44.22,1.17-.83.56-1.06.56-1.06-.11h0ZM148.19,130.18c0-1.83-.22-4.44-.39-5.83-.33-2.16-.56-2.44-1.78-2.44s-1.44.28-1.78,2.44c-.17,1.39-.39,4-.39,5.83-.05,2.39-.22,3.11-.61,2.5-.28-.44-.56-1.44-.61-2.22,0-1.28-.05-1.28-.5-.28-.33.83-.5.44-.67-1.67-.33-4.33.11-9.22.94-10.77.44-.78,1.44-2.22,2.22-3.11l1.39-1.67,1.39,1.67c3,3.55,3.5,5.83,3.11,13.88-.11,2.11-.22,2.5-.61,1.67-.44-1-.5-1-.5.28-.05.78-.33,1.78-.61,2.22-.39.61-.56-.11-.61-2.5h0ZM146.03,132.12c-.61,0-1.11-.33-1.11-.72s.5-.72,1.11-.72,1.11.33,1.11.72-.5.72-1.11.72ZM146.03,127.12c-.83,0-1.11-.39-1.11-1.55,0-.83.28-1.89.55-2.33.5-.72.61-.72,1.11,0,.28.44.55,1.5.55,2.33,0,1.17-.28,1.55-1.11,1.55h0ZM156.63,135.89c-1.22-.72-1-1.67.22-1.17.44.17.83.61.83,1.05,0,.67-.22.67-1.06.11h0ZM160.19,134.51c3.61-4.39,4-5.39,2.78-6.66-.94-.94-1.17-.78-4.77,3.05-2.05,2.22-3.83,4-4,4s-.22-.61-.17-1.33c0-.72.28-1.22.56-1,.28.17.39-.11.17-.61-.17-.5-.06-1.06.28-1.28.39-.28.44-.11.17.33s-.22.61.17.33c.33-.22.5-.72.33-1.11-.17-.44,1.11-2.22,2.78-4.11,2.39-2.55,3.66-3.44,5.55-3.94,4.27-1.06,4.77-.89,4.77,1.44,0,1.17-.28,3-.56,4.05-.61,2.33-6.77,9.99-7.11,8.94-.17-.5-.61-.33-1.55.56-2.44,2.33-2.05.56.61-2.66h0ZM160.02,132.51c-.11-.5-.44-.94-.83-.94-.33,0,.11-.78,1-1.67,1-1.05,1.78-1.5,2.11-1.17s.06,1.33-.78,2.67c-1,1.55-1.39,1.89-1.5,1.11ZM168.9,143.22c1.39,0,2.11.28,2.11.72,0,.39-.94.94-2.11,1.28-1.94.5-2.05.5-2.05-.72,0-1.11.28-1.28,2.05-1.28ZM161.96,145.55c-.17-.5-.28-1-.33-1.11,0-.06.33-.11.78-.11s.83.5.83,1.11c0,1.39-.94,1.44-1.28.11ZM162.69,148.66l-1.94-.83,3.33-.67c6.5-1.33,7.77-1.83,7.77-3.39,0-1.28-.22-1.39-2.22-1.33-1.22.06-3.83.28-5.77.5-2.66.33-3.44.28-3.16-.17.22-.39.78-.67,1.22-.67s.72-.22.56-.5c-.22-.28.22-.39.89-.22.89.17,1.05.11.55-.22-.5-.39.17-.72,2.22-1.17,6.72-1.44,7.88-1.39,10.88.11,1.55.78,2.94,1.67,3.11,1.89.17.28-.56,1.55-1.67,2.78-1.39,1.67-2.72,2.55-4.72,3.11-4.55,1.39-8.88,1.67-11.05.78Z"/><path class="e" d="M117.33,145.67c1.22.5,2.44.83,2.78.72,1-.33-2.89-2.17-3.94-1.89-.67.17-.28.5,1.17,1.17h0Z"/><path class="e" d="M120.49,140.84c-1.61-.39-5,.33-4.11.89.33.17,1.72.17,3.05-.06,2.16-.39,2.28-.5,1.05-.83h0Z"/><path class="e" d="M126.1,128.73c.61,1,1.22,1.72,1.39,1.61.33-.39-1.28-4.16-2-4.61-.94-.56-.61,1,.61,3Z"/><path class="e" d="M129.65,124.68c-1.44-1.11-1.94-1.28-1.94-.67,0,.44.33,1,.67,1.22.39.22,1.28.78,1.94,1.22,2,1.28,1.44-.17-.67-1.78h0Z"/><path class="e" d="M141.59,148.72c0,.67.22,1.17.56,1.17.28,0,.55-.33.55-.78s-.28-1-.55-1.17c-.33-.17-.56.17-.56.78Z"/><path class="e" d="M142.81,145.44c-.28,0-.72.39-.89.89-.22.56-.06.78.33.67.83-.28,1.28-1.55.56-1.55h0Z"/><path class="e" d="M147.92,147.22c-1.22-1.89-4.11-1.22-4.11,1,0,.56.39,1.28.83,1.67.09.07.2.04.29.09h2.08c.97-.54,1.61-1.64.91-2.76ZM144.92,148.22c0-.28.28-.67.61-.89.94-.56,2,.72,1.22,1.5-.67.67-1.83.22-1.83-.61Z"/><path class="e" d="M143.92,144.78c-.11.39.11.56.67.33.5-.17.89-.61.89-.89,0-.72-1.28-.28-1.55.56h0Z"/><path class="e" d="M146.59,144.22c0,.28.39.72.89.89.56.22.78.06.67-.33-.28-.83-1.55-1.28-1.55-.56h0Z"/><path class="e" d="M149.3,145.44c-.61,0-.67.78-.11,1.28.67.67,1.22.39.94-.44-.22-.44-.56-.83-.83-.83h0Z"/><path class="e" d="M149.92,147.94c-.33.17-.55.72-.55,1.17s.22.78.55.78c.28,0,.56-.5.56-1.17,0-.61-.28-.94-.56-.78Z"/><path class="e" d="M144.48,117.68c-.61,0-1.22,1.89-1.22,3.89.06,1.06.17,1.17.5.56.83-1.39,1.28-4.44.72-4.44h0Z"/><path class="e" d="M147.7,117.68c-.67,0-.61.78.11,3.33.33,1.06.72,1.61.83,1.22.39-1.05-.33-4.55-.94-4.55Z"/><path class="e" d="M164.24,124.01c.17-.72-.28-.56-1.78.61-2.5,1.89-2.61,3-.22,1.44,1-.61,1.94-1.55,2-2.05Z"/><path class="e" d="M167.13,126.12c0-1.22-1.06-.17-1.94,1.94-.94,2.16-.94,2.39-.56,2.39.44,0,2.5-3.55,2.5-4.33Z"/><path class="e" d="M171.46,140.95c-1,.39-.83.5,1.28.78,1.33.17,2.66.11,2.89-.11.67-.67-2.72-1.22-4.16-.67h0Z"/><path class="e" d="M173.29,145.17c-1.78.89-2.17,1.39-1.17,1.39.33,0,1.5-.39,2.66-.94,1.44-.61,1.78-.94,1.11-1.11-.5-.11-1.67.17-2.61.67h0Z"/><path class="e" d="M136.59,109.91c0-.61-4-2.78-5.16-2.78-.44,0-1.22.83-1.72,1.89-1,2.11-1.17,3.89-.33,3.39.28-.17.55-.78.55-1.33,0-.61.44-1.55.94-2.22l1-1.22,2.05,1.44c2.28,1.5,2.67,1.67,2.67.83Z"/><path class="e" d="M130.71,111.91c-.22,1.28-.11,1.83.56,2.05.44.17,1.55,1.28,2.39,2.5l1.55,2.11v-3.83c-.06-3.66-.11-3.89-1.61-4.66-1.78-.94-2.39-.56-2.89,1.83ZM133.82,112.69c0,1.11-.61,1.44-1.28.72-.72-.67-.39-1.83.44-1.83.44,0,.83.5.83,1.11h0Z"/><path class="e" d="M154.75,110.8c-1.17-1.78-3.16-1.94-3.16-.28,0,.89.22,1.06,1.17.78.89-.33,1.11-.17.94.61-.22,1.33-1.28,1.55-2.33.5-2.11-2.16-.11-5.5,2.5-4.16.89.5,1.33.44,2.11-.22.55-.5,1.94-1.22,3.16-1.67l2.16-.83h-2.28c-1.22-.06-2.44.11-2.66.33-1.06,1.06-18.54,1-20.99-.06-.5-.22-1.72-.33-2.78-.22l-1.83.17,1.78.44c1,.28,2.39.94,3.16,1.55,1.11.89,1.67,1,2.55.5,2.55-1.33,4.55,2.05,2.44,4.16-1.05,1.06-2.11.83-2.33-.5-.17-.78.06-.94.94-.61.94.28,1.17.11,1.17-.78,0-1.67-2-1.5-3.16.28-1.28,1.94-1.17,7.22.17,11.88l1.05,3.61.28-4.72c.22-2.94.72-5.55,1.39-6.88,1.22-2.5,4.77-6.44,5.83-6.44s4.61,3.94,5.83,6.44c.67,1.33,1.17,3.94,1.39,6.88l.28,4.72,1.06-3.61c1.33-4.66,1.44-9.94.17-11.88h0Z"/><path class="e" d="M175.96,127.18c.89-2.05.61-4.77-.5-4.77-.44,0-.89.44-1,1.05-.11.61,0,.89.33.67.94-.56,1.28.61.39,1.33-1.11.89-1.94.22-1.94-1.61,0-2.89,3.05-3.83,4.16-1.28.39.83,1,1.22,2.11,1.22.83,0,2.44.39,3.61.83l2.06.83-1.67-1.39c-.94-.78-2-1.39-2.39-1.39-.44,0-1.44-.72-2.33-1.67-.83-.89-1.83-1.66-2.22-1.78-1.11-.22-2.28-1.28-8.61-7.61-3.22-3.16-5.83-5.61-5.83-5.44,0,.22.5,1.17,1.11,2.17.61,1,1.11,2.39,1.11,3.05,0,1,.33,1.28,1.33,1.28,1.28,0,2,.89,2,2.55,0,1.05-2.44,2.55-3.55,2.11s-1.17-2.44-.06-2.44c.44,0,.83.44.83.94,0,.89.05.89.89.06,1.22-1.17.56-2.11-1.5-2.11-2.94,0-7.05,5.16-9.16,11.33-.72,2.17-.72,2.22.17.89.5-.78,2.22-2.66,3.83-4.27,2.94-2.94,4.89-3.78,9.77-4.44,2.5-.28,2.66-.22,3.27,1.28.83,2.28.28,7.55-1.17,10.38-.67,1.28-2.39,3.55-3.77,5.05l-2.61,2.72,2.44-1.33c3.27-1.78,8.11-6.22,8.88-8.22h.02Z"/><path class="e" d="M162.35,109.02c-1.06-2.17-1.67-2.28-4.66-.78-1.89.94-2.94,2.22-1.89,2.22.17,0,1.22-.61,2.33-1.39l2.05-1.44.94,1.22c.56.67,1,1.61,1,2.22,0,.56.22,1.17.55,1.33.83.5.67-1.28-.33-3.39h0Z"/><path class="e" d="M158.41,110.08c-1.44.78-1.5,1.06-1.55,4.66v3.83l1.5-2.05c.83-1.17,1.89-2.33,2.44-2.61.67-.39.83-.94.5-2.22-.5-2.28-1-2.55-2.89-1.61ZM159.8,112.52c-.28,1.39-1.55,1.55-1.55.22,0-.67.33-1.17.89-1.17.5,0,.78.39.67.94h0Z"/><path class="e" d="M187.61,143.95c-.61-1.89-1.05-4.61-1.05-6.88,0-2.05-.28-3.94-.56-4.11-.33-.22-.39-1.28-.22-2.5.17-1.17.06-2.55-.28-3.11-.5-.94-.56-.83-.61.61,0,.89-.39,2.39-.83,3.28-.78,1.44-.78,1.72.06,2.61.67.78.72,1.22.22,2.11-.83,1.61-2.94,1.72-4.38.33-.67-.61-.67-.94-.11-1.61.83-1,1.94-.61,1.5.5-.11.39.11.89.55,1.05,1.5.56,1.61-1.44.17-2.61-1.78-1.44-6.5-1.06-10.72.89-3.39,1.55-6.61,3.61-4.5,2.94,2.89-1,6.77-1.55,8.94-1.22,4.33.56,9.66,3.72,9.66,5.66,0,.44-1.44,2.28-3.22,4.05-1.86,1.95-3.76,3.23-5.84,4.04h7.98s.1-.06.13-.09c1.61-1.83,1.55-2.78-.22-2.78-1.17,0-1.44.89-.39,1.28.56.22.56.39,0,1-.55.61-.83.56-1.61-.22-.89-.83-.83-1,.11-2.05,2.11-2.33,5.61-.44,4.16,2.22-.23.42-.04.47,0,.65h2.72c-.12-.51-.23-1.03-.27-1.37-.17-.83-.78-2.94-1.39-4.66h0Z"/><path class="e" d="M181.34,129.56c.44-1.11.78-2.05.67-2.16-.11-.06-1.11-.28-2.22-.5-1.78-.33-2.16-.22-2.72.89-.33.72-1.39,2.11-2.39,3.11l-1.72,1.83,1.55-.56c.89-.33,2.55-.61,3.78-.61,2,0,2.28-.17,3.05-2ZM178.01,129.07c.22-.44.67-.83,1.11-.83s.78.39.78.83-.5.83-1.11.83c-.72,0-1-.28-.78-.83Z"/><path class="e" d="M182.28,125.4c-1.67-.61-4.94-.44-4.28.17.22.28,1.17.44,2.11.44,3.33,0,3.55.61,1.72,5.11-.22.56-.17,1,.11,1,.78,0,1.83-2.55,1.83-4.5,0-1.28-.33-1.78-1.5-2.22h0Z"/><path class="e" d="M104.61,109.97c-1.78-1.22-3-3.78-3-6.33,0-.5-.28-.94-.55-.94-.72,0-.67,2.05.06,3.89.89,2.16,3,4.61,4.94,5.72,1.15.71,1.5.71,1.06,0-.33-.61-1.5-1.67-2.5-2.33h0Z"/><path class="e" d="M101.67,98.25c.33,0,.39-.28.17-.61-.5-.83-1.33.5-1.22,2,.04.63.13.57.28-.17.11-.67.5-1.22.78-1.22h0Z"/><path class="e" d="M102.72,102.92c0,.17.22.44.56.61.28.17.56.06.56-.22,0-.33-.28-.61-.56-.61-.33,0-.56.11-.56.22Z"/><path class="e" d="M105.83,95.03c-.56-.11-1.22,0-1.55.33s0,.39,1.06.22c1.17-.28,1.28-.39.5-.56h0Z"/><path class="e" d="M104.94,101.53c0,.33.22.72.56.89.33.17.39-.06.22-.5-.39-1-.78-1.17-.78-.39Z"/><path class="e" d="M106.72,99.7c-.11.06.06.22.28.39.28.17.83-.22,1.28-.89.45-.78.34-.91-.33-.39-.56.44-1.11.83-1.22.89h0Z"/><path class="e" d="M116.88,102.69c1.33,1.11.94-.22-.78-2.55-1.72-2.44-3.28-3.61-6.11-4.55-1.44-.5-2.05-.5-2.5-.06-.44.5-.33.56.33.33.56-.22,1-.11,1,.22s.33.5.67.39c.39-.17,1.06.06,1.44.5.39.39,1.22.72,1.83.72.72,0,1,.22.72.67-.22.33-.17.44.17.28.67-.44,2,.94,1.44,1.44-.17.22-.06.39.28.39.39,0,.67.33.67.78,0,.39.39,1.05.83,1.44h0Z"/><path class="e" d="M110.11,110.97c-1.5.44-1.44.44.78.67,1.33.17,2.39.11,2.39-.11,0-.72-1.55-1-3.16-.56h0Z"/><path class="e" d="M112.77,109.69c1.17,1.17,2.28,2,2.39,1.83.39-.39-2.83-5.33-3.66-5.66-1.61-.61-.83,1.78,1.28,3.83h0Z"/><path class="e" d="M115.49,109.36c.44.67.55.5.55-.72,0-.89-.22-1.44-.55-1.22-.67.44-.67.89,0,1.94Z"/><path class="e" d="M121.05,85.93c0-.5.22-1.11.55-1.28.67-.44.72-1.39.06-1.39-.44,0-2.28,4.22-2.28,5.27,0,.28.39,0,.83-.61.44-.56.83-1.5.83-2h0Z"/><path class="e" d="M124.71,84.48c3,1.5,4.16,1.17,1.39-.39-1.28-.78-2.61-1.39-2.89-1.39-1.11,0-.39.89,1.5,1.78Z"/><path class="e" d="M130.37,98.42c-.33-.39-.83-.72-1.17-.72s-.39.17-.22.39c.22.17.11.67-.28,1.11-.5.61-.78.61-1.61-.17-1-.89-1.06-.89-1.06.5v1.44l2.5-.89c1.89-.72,2.33-1.11,1.83-1.67h0Z"/><path class="e" d="M139.09,93.37c-.17-.83-.5-2.05-.67-2.78-.17-.72-.06-1.22.39-1.22.33,0,.5-.22.33-.44-.17-.28.22-1.28.83-2.28.61-1,1-2,.83-2.16-.17-.17.11-.61.67-1.05.89-.67.89-.72-.06-.39-2.11.72-4.11,7.11-3.33,10.6.11.72.5,1.28.83,1.28s.44-.61.17-1.55h0Z"/><path class="e" d="M139.37,95.48c-.33,0-.56.39-.56.83s.11.83.22.83.33-.39.55-.83c.17-.44.06-.83-.22-.83h0Z"/><path class="e" d="M143.81,97.7c-.33,0-.56.22-.56.5,0,.33.22.72.56.89.28.17.55-.06.55-.5,0-.5-.28-.89-.55-.89Z"/><path class="e" d="M144.42,86.93c0,.61.17.78.33.33.17-.39.11-.89-.06-1.05-.17-.22-.33.11-.28.72h0Z"/><path class="e" d="M146.59,98.92c0-.5.17-1.83.28-2.89.39-2.33-.5-4.11-1.39-2.78-.55.83-.55,1.55-.17,4.83.22,1.89,1.28,2.55,1.28.83h0Z"/><path class="e" d="M147.53,87.26c.17-.39.11-.89-.06-1.05-.17-.22-.33.11-.28.72,0,.61.17.78.33.33h0Z"/><path class="e" d="M148.25,99.08c.28-.17.56-.56.56-.89,0-.28-.28-.5-.56-.5-.33,0-.55.39-.55.89,0,.44.22.67.55.5Z"/><path class="e" d="M150.75,83.59c.44.22.67.56.5.83-.17.28,0,.5.39.5s.55.17.33.33c-.17.22,0,1.05.5,1.94.44.89.61,1.61.39,1.61-.28,0-.11.22.28.5.56.33.61,1,.17,2.89-.55,2.39-.44,3.28.33,2.5.94-.89.39-6.72-.83-8.99-1-1.94-2.89-3.66-2.89-2.66,0,.11.39.39.83.56h0Z"/><path class="e" d="M152.69,96.59c.44.72.56.67.56-.17,0-.5-.28-.94-.56-.94-.67,0-.67.06,0,1.11Z"/><path class="e" d="M164.96,99.03c-.83.78-1.11.78-1.61.17-.39-.44-.5-.94-.28-1.11.17-.22.11-.39-.22-.39s-.83.33-1.17.72c-.5.56-.06.94,1.83,1.67l2.5.89v-1.44c0-1.39-.06-1.39-1.06-.5h0Z"/><path class="e" d="M168.57,83.82c.44,0,.78-.28.78-.56,0-.89-.78-.67-3.39.83-2.22,1.22-2.33,1.39-1,1.39.83,0,1.78-.39,2.17-.83s1.05-.83,1.44-.83Z"/><path class="e" d="M170.4,84.93c.28.44.78,1.5,1.22,2.33.39.89.78,1.44.94,1.33.39-.39-1.67-5.33-2.16-5.33-.61,0-.61.56,0,1.67Z"/><path class="e" d="M178.34,98.64c.33.17.44.11.28-.17-.17-.33.78-.89,2.16-1.28,1.33-.39,2.44-.94,2.44-1.22s.44-.33.94-.11c.72.22.83.17.44-.28-.89-1-4.5.39-7,2.61-1.83,1.72-4.44,6.16-3.55,6.16.17,0,1.05-1.39,2-3.05,1-1.72,1.94-2.89,2.28-2.66h0Z"/><path class="e" d="M176.62,107.52c-.44-.44-.61-.17-.61,1,.06,1.44.11,1.55.61.67.44-.78.44-1.22,0-1.67Z"/><path class="e" d="M181.4,106.41c0-.83-.17-.83-1.06-.28-1.22.83-4.05,5.44-3.39,5.44.89,0,4.5-4.16,4.44-5.16h0Z"/><path class="e" d="M181.95,110.97c-1.61-.44-3.17-.17-3.17.56,0,.22,1.06.28,2.33.11,2.28-.22,2.33-.22.83-.67h0Z"/><path class="e" d="M185.06,100.08c.17-.28-.17-.78-.78-1.17-1.22-.78-1.28-.72-.28.61.44.56.89.78,1.06.56Z"/><path class="e" d="M191,102.69c-.33,0-.56.44-.56.94,0,2.61-1.22,5.11-3.05,6.33-1.06.72-1.94,1.67-1.94,2.05,0,.44.72.17,1.89-.72,2.78-2.11,5.55-8.61,3.66-8.61h0Z"/><path class="e" d="M186.73,95.59c1.05.17,1.39.11,1.05-.22-.33-.33-1-.44-1.55-.33-.78.17-.67.28.5.56h0Z"/><path class="e" d="M186.62,102.3c.39-.39.56-.83.39-1s-.5.11-.67.67c-.33.78-.28.83.28.33Z"/><path class="e" d="M191.39,100.03c.11-.33.11-1,0-1.39-.17-.33-.28-.06-.28.72s.11,1.05.28.67Z"/><path class="e" d="M190.06,120.35c-.39.28-.5.72-.22,1.17.39.61.61.5,1.11-.44.67-1.17.33-1.5-.89-.72h0Z"/><path class="e" d="M191.83,122.79c-1.61-.11-1.55-.11-.67,1.06.55.78.78.78,1.39.17.89-1,.89-1.05-.72-1.22h0Z"/><path class="e" d="M203.72,112.13c-3-.83-4.61-.5-2.5.44.89.39,1.72.56,1.89.44.11-.17.72-.06,1.28.28,1.05.56,1.5,3.28.55,3.28-.28,0-.5.78-.5,1.67.06,2.05.61,1.61,1.55-1.22.89-2.94.33-4.22-2.28-4.89h0Z"/><path class="e" d="M192.94,139.84h3.16c1.72.06,3.55-.11,4.05-.28.78-.33.78-.44-.17-1.11-.94-.67-1.55-.61-4.05.28l-3,1.11h0Z"/><path class="e" d="M194.22,138.23c.67,0,1.44-1.05,1.05-1.44-.11-.11-.55.11-.94.61-.44.5-.44.83-.11.83Z"/><path class="e" d="M196.28,141.34c-1.83-.5-2.44-.06-1,.67.61.33,1.39.39,1.78.17.5-.33.28-.56-.78-.83h0Z"/><path class="e" d="M196.83,132.29c.89-.17,2.44-.67,3.44-1.11,1-.5,2.11-.61,2.5-.39.39.28,1,.5,1.33.56s1.44.28,2.39.5c1.17.22,1.72.17,1.72-.28,0-.39-.39-.56-.83-.33-.44.17-.83.06-.83-.17,0-.28-1.22-.67-2.67-.89-2.16-.28-3.22-.11-5.72,1.05-2,.94-2.44,1.28-1.33,1.06Z"/><path class="e" d="M200,142.28c-.39-.17-.89-.11-1.05.06-.22.17.11.33.72.28.61,0,.78-.17.33-.33h0Z"/><path class="e" d="M201.83,145.44c-1.06,0-2.05.22-2.22.56-.22.33.67.56,2.22.56s2.44-.22,2.22-.56c-.17-.33-1.17-.56-2.22-.56Z"/><path class="e" d="M210.32,140.67c-.39-.22-.44.11-.17.94.22.72.22,1.17,0,.94-.22-.22-1.22.17-2.16.83-.94.67-1.94,1.22-2.22,1.22s-.61.33-.78.67c-.11.39,0,.72.28.72.83,0,4.05-2.22,4.05-2.78,0-.33.28-.44.55-.28.33.17.78-.28,1.05-1,.33-.78.83-1.55,1.11-1.78.33-.17.61-.61.61-1,0-.33-.39-.06-.89.61-.44.67-1.11,1.06-1.44.89v.02Z"/><path class="e" d="M205.1,139.89c-.11,0-.22.22-.22.56,0,.28.28.56.61.56.28,0,.39-.28.22-.56-.17-.33-.44-.56-.61-.56Z"/><path class="e" d="M205.77,136.12c-.33.28-.11.44.61.44.94,0,1.11-.22.83-1.22-.22-.89-.39-1-.56-.44-.17.44-.55,1-.89,1.22h0Z"/><path class="e" d="M206.82,139.34c.44,0,.83-.22.83-.56,0-.28-.39-.39-.83-.22-.44.22-.83.44-.83.56s.39.22.83.22Z"/><path class="e" d="M209.54,132.23c-.44-.39-.78-.44-.78-.17s.28.72.61.89c.89.61,1.06.06.17-.72Z"/><path class="e" d="M271.17,130.06c-1.94,2.5-8.94,8.16-10.05,8.16-.33,0-1,.5-1.55,1.11-1.33,1.44-.83,1.39,2.66-.33,5.38-2.78,12.21-9.22,12.99-12.38.44-1.89-.22-2.66-4.27-5.16-4.44-2.66-10.16-4.44-13.38-4.22l-2.44.22,2.22.44c4,.78,8.83,2.55,12.21,4.44,4.27,2.39,4.61,3.89,1.61,7.72Z"/><path class="e" d="M266.51,125.46c-.61,0-.61.28,0,2.22.44,1.33.44,1.28.5-.44.05-.94-.22-1.78-.5-1.78Z"/><path class="e" d="M33.27,80.04c-1.94-4-2.94-4.44-7.16-3.44-2.03.48-2.64,2.02-1.83,4.61.61,2,1.17,2.83,2.28,3.22,1.55.61,7.27.22,8-.5.28-.28-.33-2-1.28-3.89h-.01Z"/><path class="e" d="M38.04,108.63c-1.72-2.33-4.72-8.88-4.72-10.33,0-.61-.28-1.28-.56-1.44-.33-.17-.56-.61-.56-.89,0-.33.33-.39.67-.17.5.28.5.11-.06-.5-.39-.5-.56-.94-.28-.94s.17-.22-.28-.5c-.39-.28-.56-.78-.33-1.17.56-.89,1.55.11,1.78,1.78.22,1.5,1.94,4.89,2.44,4.89.22,0,.06-1.44-.39-3.22-.44-1.72-.89-3.89-1.06-4.77-.28-1.28-.56-1.5-1.55-1.22-.67.17-2.16.33-3.33.33-2.44,0-2.44.28-.72,4.44,2.94,7.05,7.55,14.32,11.27,17.77l2.05,1.94-1.5-2.11c-.83-1.11-2.11-2.89-2.89-3.89h.02Z"/><path class="e" d="M57.14,131.51c-1.83-1.17-9.99-4.05-13.82-4.83-4-.83-4.33-.83-6.39.22-2.39,1.17-2.72,1.72-1.89,3.17.28.5,1.61,1.5,2.89,2.16,2,1.06,3.5,1.22,10.77,1.44,7.66.22,8.49.17,8.83-.72.22-.56.06-1.17-.39-1.44Z"/><path class="e" d="M46.2,77.21c-3.39.11-3.61.06-2.72-.83.44-.44,1.28-.83,1.83-.83.61,0,2.28-.28,3.83-.61,1.61-.39,5.22-.5,8.61-.33,4.16.17,5.33.11,4.16-.28-5.39-1.72-24.82-1.33-24.65.5,0,.22.56,1.5,1.22,2.89.67,1.39,1.22,2.55,1.28,2.66.17.33,8.55-2.39,8.55-2.83,0-.22-.94-.39-2.11-.33h0ZM41.15,77.38c.56-.67.78-.67,1.11-.11.22.39.17.89-.22,1.11-1,.61-1.61-.11-.89-1Z"/><path class="e" d="M62.08,101.86c-6.05-1.44-8.77-3.05-7.49-4.44.56-.56.94-.56,2.16.06,2.05,1.05,4.33,1.94,4.33,1.61,0-.11-1.11-1-2.5-2-1.55-1.11-2.28-1.94-1.89-2.22.44-.28.39-.44-.11-.67-.56-.22-.44-.33.22-.33,1.67-.06,3.22,1,7.27,4.89l3.83,3.66-1.89-2.72c-2.5-3.55-5.05-5.77-8.72-7.38-3.33-1.55-6.38-1.39-7.33.39-.67,1.22-.67,1.55,0,3.11.67,1.67,4.22,4.61,7,5.83,2.5,1.06,9.77,2.28,9.38,1.55-.17-.22-2.05-.83-4.28-1.33h.02ZM52.53,95.92c-1.17-1.67-.83-2.39,1.11-2.39,1.22,0,1.67.28,1.78,1.22.11.78-.22,1.44-.94,1.78-.89.5-1.28.39-1.94-.61h-.01Z"/><path class="e" d="M58.14,99.14c-3.39-1.44-3.89-1.5-1.94-.22,1.61,1,6,2.28,6.44,1.89.17-.17-.06-.33-.5-.33s-2.22-.61-4-1.33h0Z"/><path class="e" d="M57.75,95.03c0,.11,1,1,2.22,1.94,2.44,2.05,3.5,2.44,1.89.67-.89-1-4.11-3.05-4.11-2.61Z"/><path class="e" d="M53.31,37.18c-.33,0-.56.22-.56.56,0,.28.22.56.56.56.28,0,.56-.28.56-.56,0-.33-.28-.56-.56-.56Z"/><path class="e" d="M63.53,48.84c2.39-.89,10.77,1.33,15.71,4.22,3.44,2,4.16,1.61,1.11-.56-4-2.83-9.44-4.83-14.21-5.22-3.55-.22-4.22-.17-4.83.72-1,1.33-.94,9.99,0,13.88.78,3.05,3.94,9.44,3.39,6.83-.17-.83-.56-2.22-.94-3.05-.72-1.78-.72-1.83-1.5-6.72-1.06-6.44-.67-9.33,1.28-10.1h-.01Z"/><path class="e" d="M69.08,53.28c-.33,0-1.06.39-1.67.89-.67.52-.56.58.33.17,1.72-.78,2-1.06,1.33-1.06h0Z"/><path class="e" d="M73.57,61.39c-1.17.44-1,3.39.28,5.77,1.17,2.22,7.83,8.72,11.77,11.55,2.44,1.72,2.61,1.72,2.94.67.5-1.5-3.33-8.66-7.16-13.33-2.89-3.61-5.89-5.39-7.83-4.66Z"/><path class="e" d="M91.23,38.57c.72-1.28.78-1.5.89-3.11,0-.61.28-1,.56-.83.22.17.72-.33,1.11-1.17.5-1.11.83-1.28,1.28-.83.5.5.39.83-.44,1.44-.56.44-.89,1-.67,1.17.22.22.17.89-.17,1.5-.28.56-.39,1.28-.17,1.61.17.33,1.28-1,2.39-2.94l2-3.5-2.72-1.83c-1.5-1-2.89-1.61-3.11-1.39-.61.61-2.55,7.11-3.33,10.72-.83,4-1.39,15.49-.67,14.55.28-.39.56-2.28.61-4.16.11-3.55,1.33-9.27,2.44-11.22h0Z"/><path class="e" d="M95.51,7.09l-1.61-1.83-.06,2.61c0,2.17.22,2.66,1.17,2.94.78.28,1.39.11,1.67-.33.72-1.17.61-1.44-1.17-3.39Z"/><path class="e" d="M102.17,27.8l.67-1.55c.33-.83.67-3.05.67-4.89l.06-3.33-2.78-1.5c-1.5-.78-2.94-1.33-3.16-1.22-.61.39-2.67,5.16-2.67,6.22,0,.44.83,1.61,1.89,2.55,1,.94,2.61,2.17,3.61,2.72l1.72,1h0Z"/><path class="e" d="M111,58c-3.17-4.16-4.11-7.22-2.33-7.33.67-.06,1.39.83,2.28,2.78.67,1.5,1.33,2.67,1.5,2.55.11-.17-.11-1.61-.56-3.28-.44-1.66-.72-3.11-.56-3.22.39-.44,1.5,2.33,1.94,4.83l.44,2.55.06-2.11c0-1.17-.33-2.89-.83-3.78-.89-1.78-.78-2.72.17-1.5,1.11,1.39,1.83,4.55,1.83,7.88,0,1.89.28,3.78.61,4.22.39.61.5-.67.33-4.44-.28-7.83-3.11-13.32-6.77-13.32-3.44,0-4.11,5.33-1.44,10.83.94,1.83,2.83,4.55,4.22,6.11,2.94,3.16,2.44,1.55-.89-2.78h0ZM108.22,49.62c-.39-.22-.11-3,.33-3.44.5-.56,2.39.61,2.67,1.55.39,1.39-1.72,2.72-3,1.89Z"/><path class="e" d="M109.83,53.28c-.56-1.05-1-1.5-1-1.05s.72,2,1.67,3.44c.89,1.44,1.78,2.61,2,2.61.17,0-.11-.67-.67-1.55-.56-.83-1.44-2.39-2-3.44h0Z"/><path class="e" d="M113.49,23.63c-1.78-1.11-3.44-2-3.72-2-.22,0-.39.61-.39,1.39s-.33,2.28-.78,3.33l-.83,1.89,2.05.67c1.11.33,3,1.11,4.16,1.72,1.22.61,2.28.94,2.44.78.44-.39-2.17-2.5-3.11-2.55-.61,0-.61-.17-.06-.83.83-1,1.33-1.05,2.33-.17.39.39,1.11.78,1.5.89,1.44.33,5.88,3.66,9.49,7.16,5.05,4.94,5.11,4.72.33-1.05-2.66-3.28-9.05-8.61-13.44-11.22h.03ZM112,27.74c-1.33,0-1.94-.61-1.94-1.94,0-.33.11-.22.28.11.44,1.22,1.17.78.94-.55-.11-.67-.06-.83.11-.39.22.44.72,1.28,1.22,1.78.78.94.72,1-.61,1h0Z"/><path class="e" d="M133.26,48.28c.33.5.56.56.56.17,0-.33-.28-.83-.56-1-.67-.44-.67-.22,0,.83Z"/><path class="e" d="M145.92,16.64c-1.44,0-7,6.5-8.94,10.6-1.89,3.83-3.16,8.27-2.39,8.27.44,0,2-3.83,2-5.05,0-.61.17-1.05.39-1.05.28,0,1.17-1.33,2-3,1.5-2.83,6.05-8.11,7.05-8.11s5.55,5.27,7.05,8.11c.83,1.67,1.72,3,1.94,3,.28,0,.44.44.44,1.05,0,1.44,1.78,5.5,2.05,4.66.44-1.22-1.39-6.44-3.55-10.05-2.11-3.55-6.77-8.44-8.05-8.44h0Z"/><path class="e" d="M144.2,25.91c-.17.28.67.44,1.83.44s2-.17,1.83-.44c-.11-.22-.94-.39-1.83-.39s-1.72.17-1.83.39Z"/><path class="e" d="M148.08,37.12c-.67-1.05-1.61-1.89-2.05-1.89s-1.39.83-2.05,1.89c-1.05,1.61-1.28,2.55-1.22,6.39,0,2.5.5,6.72,1.06,9.44,1.66,7.94,2.78,7.88,4.44-.28,1.56-7.38,1.5-13.1-.17-15.55h0Z"/><path class="e" d="M146.03,3.31c-.33,0-.56.39-.56.83s.22.83.56.83c.28,0,.56-.39.56-.83s-.28-.83-.56-.83Z"/><path class="e" d="M158.8,47.45c-.56.33-.78,1.39-.33,1.39.11,0,.39-.39.55-.89.17-.44.11-.67-.22-.5Z"/><path class="e" d="M174.96,28.74c.39-.11,1.11-.5,1.5-.89,1-.89,1.5-.83,2.33.17.56.67.56.83-.05.83-.94.06-3.55,2.16-3.11,2.55.17.17,1.22-.17,2.44-.78,1.17-.61,3.05-1.39,4.16-1.72l2.05-.67-.83-1.89c-.44-1.05-.78-2.55-.78-3.33s-.17-1.39-.44-1.39c-.89,0-7.22,4.16-10.94,7.27-3.94,3.22-10.55,10.49-9.55,10.49.17,0,1.83-1.55,3.78-3.5,3.5-3.44,7.94-6.83,9.44-7.16v.02ZM180.67,24.96c.17-.44.22-.28.11.39-.11.72,0,1.28.28,1.28s.5-.28.5-.67c0-.33.11-.5.28-.33.72.67-.5,2.11-1.83,2.11s-1.33-.06-.55-1c.5-.5,1-1.33,1.22-1.78h0Z"/><path class="e" d="M182.84,43.84c-3.55,0-6.38,5.55-6.66,13.32-.17,3.78-.06,5.05.33,4.44.33-.44.61-2.33.61-4.22,0-3.33.72-6.5,1.83-7.88.94-1.22,1.05-.28.17,1.5-.5.89-.83,2.61-.83,3.78l.05,2.11.44-2.55c.44-2.5,1.55-5.27,1.94-4.83.17.11-.11,1.55-.56,3.22-.44,1.67-.67,3.11-.55,3.28.17.11.83-1.06,1.5-2.55.89-1.94,1.61-2.83,2.22-2.78,1.83.11.89,3.16-2.28,7.33-3.33,4.33-3.83,5.94-.89,2.78,6.44-6.94,8-16.93,2.66-16.93l.02-.02ZM181.12,49.23c-.89-.67-.83-1.22.22-2.28,1.11-1.11,2.44-1.17,2.5-.06.05.44.11,1.28.17,1.78.06,1.11-1.72,1.44-2.89.56Z"/><path class="e" d="M182.23,53.28c-.56,1.06-1.44,2.61-2,3.44-.56.89-.83,1.55-.67,1.55.56,0,3.66-5.11,3.66-6.05,0-.44-.44,0-1,1.05h0Z"/><path class="e" d="M203.22,39.4c-.78-3.61-2.72-10.1-3.33-10.72-.22-.22-1.61.39-3.11,1.39l-2.72,1.83,2,3.5c1.11,1.94,2.22,3.28,2.39,2.94.22-.33.11-1.05-.17-1.61-.33-.61-.39-1.28-.17-1.5.22-.17-.11-.72-.72-1.17-1.06-.78-1.06-.83.17-2,.67-.72,1.22-.94,1.22-.56,0,.33-.28.67-.55.67-.61,0,.33,2.22,1.17,2.78.28.17.56.83.67,1.39.11.61.44,1.61.78,2.22,1.11,2,2.33,7.66,2.44,11.22.06,1.89.33,3.78.61,4.16.72.94.17-10.55-.67-14.55h0Z"/><path class="e" d="M189,25.52c.89,2.22,1.28,2.22,4.61-.06,3.39-2.33,3.94-3.72,2.67-6.72-1.67-3.83-1.83-3.94-5-2.22-2.72,1.5-2.78,1.55-2.89,4.27-.06,1.5.22,3.66.61,4.72h0Z"/><path class="e" d="M230.75,48.01c-.61-.89-1.28-.94-4.83-.72-4.77.39-10.22,2.39-14.21,5.22-1.44,1.06-2.33,1.89-1.94,1.89.44,0,1.78-.61,3.05-1.33,4.94-2.89,13.32-5.11,15.71-4.22,2.28.89,2.39,4.55.55,14.55-.06.39-.55,1.67-1.05,2.89-1.11,2.44-1.11,2.55-.5,2.55.67,0,2.78-4.83,3.44-7.77.83-3.78.72-11.83-.22-13.05h0Z"/><path class="e" d="M223.09,53.28c-.83,0-.44.39,1.05,1.06,1.44.56,1.5.56.5-.22-.61-.44-1.28-.83-1.55-.83h0Z"/><path class="e" d="M198.22,7.86l-.06-2.61-1.61,1.83c-1.78,1.94-1.89,2.22-1.17,3.39.28.44.89.61,1.67.33.94-.28,1.17-.78,1.17-2.94Z"/><path class="e" d="M218.26,67.05c3.61-7.11-2.05-7.88-7.61-1-2.72,3.33-7.5,11.49-7.38,12.55,0,.28.17.83.33,1.22.61,1.55,12.71-8.94,14.66-12.77Z"/><path class="e" d="M254.63,74.54c-1.28-1.33-16.05-1.78-22.21-.67-2,.33-3.66.72-3.66.83s2.44.06,5.38-.11c3.39-.22,6.61-.11,8.5.28,1.66.39,3.5.67,4.11.67.56,0,1.39.39,1.83.83.89.89.67.94-2.78.83-1.11-.06-2.05.11-2.05.33,0,.44,8.38,3.16,8.55,2.83,1.22-2.39,2.55-5.66,2.33-5.83h0ZM250.91,77.43c.89.5.17,1.39-.83,1-.56-.22-.67-.5-.33-.83s.83-.39,1.17-.17h0Z"/><path class="e" d="M239.75,98.53c5.5-4.94,1.89-9.44-5-6.22-3.66,1.61-6.22,3.83-8.72,7.38l-1.89,2.72,3.83-3.66c4.05-3.89,5.61-4.94,7.27-4.89.67,0,.78.11.22.33-.5.22-.56.39-.11.67.39.28-.33,1.11-1.89,2.22-1.39,1-2.5,1.89-2.5,2,0,.33,2.28-.56,4.33-1.61,1.22-.61,1.61-.61,2.16-.06,1.28,1.39-1.44,3-7.5,4.44-5.11,1.22-5.61,1.89-.89,1.28,4.55-.61,7.88-2.05,10.66-4.61h.03ZM237.58,96.53c-1.55-.83-1.22-2.94.55-3.16,2-.28,2.61.67,1.5,2.39-.78,1.17-1.11,1.33-2.05.78h0Z"/><path class="e" d="M237.36,97.64l-1.33.61c-.72.39-2.61,1.17-4.16,1.72-1.55.61-2.22.94-1.44.78.78-.17,2-.44,2.78-.61.78-.17,2.05-.83,2.78-1.39l1.39-1.11h-.02Z"/><path class="e" d="M232.92,95.64c-1.72.89-4.16,3.17-3.27,3.17.28-.06,1.5-.94,2.72-2.05,2-1.78,2.05-1.89.55-1.11h0Z"/><path class="e" d="M262.29,90.48c-1.22,0-2.72-.17-3.39-.33-1-.28-1.28-.06-1.55,1.22-.17.89-.61,3.05-1.06,4.77-.44,1.78-.61,3.22-.39,3.22.5,0,2.22-3.39,2.44-4.89.22-1.67,1.22-2.66,1.78-1.78.22.39.06.89-.33,1.17-.44.28-.56.5-.28.5s.11.44-.28.94c-.55.61-.55.78-.11.5.83-.5.89-.11.22,1.22-.28.5-.94,2.33-1.44,4-.89,2.78-3.61,7.38-7,11.94-.78,1.03-.5.94.83-.28,4.11-3.83,10.99-15.44,12.27-20.71.39-1.44.33-1.5-1.72-1.5h0Z"/><path class="e" d="M245.52,143.17c.5,0,1.39.22,1.94.39.78.28.83.22.39-.28-.39-.39-1.22-.61-1.94-.44-.72.11-.89.28-.39.33Z"/><path class="e" d="M255.46,144.44c0,.11.17.5.33.89.11.33.5.56.78.33.28-.17.5-.06.5.22s.72.83,1.67,1.22c.89.39,1.67.89,1.67,1.17,0,.22.44.56.94.78.39.11.92.45,1.54.93h1.86c-2.4-1.8-4.81-3.37-7.01-4.48-1.28-.67-2.33-1.11-2.28-1.06h0Z"/><path class="e" d="M254.13,132.23c1.28-.67,2.66-1.78,3-2.44.55-1,.44-1.33-.56-2.22-.72-.5-2.05-1.11-3.11-1.33-2.28-.39-9.16,1.28-14.93,3.66-4.11,1.72-5.22,3-3.39,3.72.5.17,4.44.17,8.77.06,6.72-.22,8.22-.44,10.22-1.44h0Z"/><path class="e" d="M238.75,37.18c-.33,0-.56.22-.56.56,0,.28.22.56.56.56.28,0,.55-.28.55-.56,0-.33-.28-.56-.55-.56Z"/><path class="e" d="M257.57,84.04c1.05.67,6.55.94,7.94.39,1.11-.44,1.67-1.22,2.33-3.55.5-1.67.89-3.17.89-3.33,0-.56-5.61-1.61-6.83-1.28-1.72.39-5.44,7.11-4.33,7.77h0Z"/><path class="e" d="M276.06,74.16l1.5-1.89-2.33.28c-2.72.39-2.39.17-2.83,1.61-.28.83-.11,1.33.56,1.55,1.39.5,1.5.44,3.11-1.55h-.01Z"/><path class="e" d="M287.88,123.79c.44,0,.83-.28.83-.56,0-.33-.39-.56-.83-.56s-.83.22-.83.56c0,.28.39.56.83.56Z"/></g></g></svg>